<mxfile host="Electron" modified="2024-03-18T03:10:45.916Z" agent="Mozilla/5.0 (Windows NT 10.0; Win64; x64) AppleWebKit/537.36 (KHTML, like Gecko) draw.io/23.1.5 Chrome/120.0.6099.109 Electron/28.1.0 Safari/537.36" etag="-XXVIkq657h6TcU0-7M-" version="23.1.5" type="device" pages="29">
  <diagram name="SimpleMove" id="ttixwJUeaHLuwKUpD-Zb">
    <mxGraphModel dx="864" dy="516" grid="1" gridSize="10" guides="1" tooltips="1" connect="1" arrows="1" fold="1" page="1" pageScale="1" pageWidth="827" pageHeight="1169" math="0" shadow="0">
      <root>
        <mxCell id="0" />
        <mxCell id="1" parent="0" />
        <mxCell id="Hs1kt8tsO8VmQUhpT7sQ-1" value="r2: Room" style="html=1;whiteSpace=wrap;" parent="1" vertex="1">
          <mxGeometry x="130" y="290" width="110" height="50" as="geometry" />
        </mxCell>
        <mxCell id="Hs1kt8tsO8VmQUhpT7sQ-2" value="s: Student" style="html=1;whiteSpace=wrap;" parent="1" vertex="1">
          <mxGeometry x="130" y="130" width="110" height="50" as="geometry" />
        </mxCell>
        <mxCell id="Hs1kt8tsO8VmQUhpT7sQ-3" value="r1: Room" style="html=1;whiteSpace=wrap;" parent="1" vertex="1">
          <mxGeometry x="390" y="130" width="110" height="50" as="geometry" />
        </mxCell>
        <mxCell id="Hs1kt8tsO8VmQUhpT7sQ-4" value="sd Simple Move" style="shape=umlFrame;whiteSpace=wrap;html=1;pointerEvents=0;width=110;height=30;" parent="1" vertex="1">
          <mxGeometry x="60" y="40" width="550" height="380" as="geometry" />
        </mxCell>
        <mxCell id="dDFBhO0TIRUiKfnM5f7h-1" value="" style="endArrow=none;html=1;rounded=0;" parent="1" source="Hs1kt8tsO8VmQUhpT7sQ-1" target="Hs1kt8tsO8VmQUhpT7sQ-2" edge="1">
          <mxGeometry width="50" height="50" relative="1" as="geometry">
            <mxPoint x="390" y="300" as="sourcePoint" />
            <mxPoint x="440" y="250" as="targetPoint" />
          </mxGeometry>
        </mxCell>
        <mxCell id="dDFBhO0TIRUiKfnM5f7h-2" value="1: addcharacter(s)" style="html=1;verticalAlign=bottom;endArrow=block;curved=0;rounded=0;horizontal=0;" parent="1" edge="1">
          <mxGeometry x="-0.1088" y="-10" width="80" relative="1" as="geometry">
            <mxPoint x="130" y="190" as="sourcePoint" />
            <mxPoint x="129" y="280" as="targetPoint" />
            <mxPoint as="offset" />
          </mxGeometry>
        </mxCell>
      </root>
    </mxGraphModel>
  </diagram>
  <diagram id="wICkGsR8HxsWq7h2CoFG" name="TransistorJump">
    <mxGraphModel dx="880" dy="1701" grid="1" gridSize="10" guides="1" tooltips="1" connect="1" arrows="1" fold="1" page="1" pageScale="1" pageWidth="827" pageHeight="1169" math="0" shadow="0">
      <root>
        <mxCell id="0" />
        <mxCell id="1" parent="0" />
        <mxCell id="2vBtiuyUsDSU_rNewhbY-1" value="&lt;b&gt;sd&lt;/b&gt;&amp;nbsp;Transistor Jump" style="shape=umlFrame;whiteSpace=wrap;html=1;pointerEvents=0;width=190;height=30;" parent="1" vertex="1">
          <mxGeometry x="50" y="-490" width="620" height="410" as="geometry" />
        </mxCell>
        <mxCell id="Du7ihi0lZH-QFvdKasJx-1" value="t: Transistor" style="html=1;whiteSpace=wrap;" parent="1" vertex="1">
          <mxGeometry x="130" y="-240" width="110" height="50" as="geometry" />
        </mxCell>
        <mxCell id="Du7ihi0lZH-QFvdKasJx-2" value="r2: Room" style="html=1;whiteSpace=wrap;" parent="1" vertex="1">
          <mxGeometry x="470" y="-240" width="110" height="50" as="geometry" />
        </mxCell>
        <mxCell id="Du7ihi0lZH-QFvdKasJx-3" value="r1: Room" style="html=1;whiteSpace=wrap;" parent="1" vertex="1">
          <mxGeometry x="470" y="-400" width="110" height="50" as="geometry" />
        </mxCell>
        <mxCell id="Du7ihi0lZH-QFvdKasJx-4" value="s: Student" style="html=1;whiteSpace=wrap;" parent="1" vertex="1">
          <mxGeometry x="130" y="-400" width="110" height="50" as="geometry" />
        </mxCell>
        <mxCell id="Du7ihi0lZH-QFvdKasJx-6" value="" style="endArrow=none;html=1;rounded=0;" parent="1" source="Du7ihi0lZH-QFvdKasJx-4" target="Du7ihi0lZH-QFvdKasJx-3" edge="1">
          <mxGeometry width="50" height="50" relative="1" as="geometry">
            <mxPoint x="390" y="-230" as="sourcePoint" />
            <mxPoint x="440" y="-280" as="targetPoint" />
          </mxGeometry>
        </mxCell>
        <mxCell id="Du7ihi0lZH-QFvdKasJx-7" value="" style="endArrow=none;html=1;rounded=0;" parent="1" source="Du7ihi0lZH-QFvdKasJx-1" target="Du7ihi0lZH-QFvdKasJx-4" edge="1">
          <mxGeometry width="50" height="50" relative="1" as="geometry">
            <mxPoint x="390" y="-230" as="sourcePoint" />
            <mxPoint x="440" y="-280" as="targetPoint" />
          </mxGeometry>
        </mxCell>
        <mxCell id="Du7ihi0lZH-QFvdKasJx-8" value="1: getTransistor()" style="html=1;verticalAlign=bottom;endArrow=block;curved=0;rounded=0;" parent="1" edge="1">
          <mxGeometry width="80" relative="1" as="geometry">
            <mxPoint x="280" y="-400" as="sourcePoint" />
            <mxPoint x="350" y="-400" as="targetPoint" />
          </mxGeometry>
        </mxCell>
        <mxCell id="Du7ihi0lZH-QFvdKasJx-9" value="2: t" style="html=1;verticalAlign=bottom;endArrow=open;dashed=1;endSize=8;curved=0;rounded=0;" parent="1" edge="1">
          <mxGeometry relative="1" as="geometry">
            <mxPoint x="340" y="-351" as="sourcePoint" />
            <mxPoint x="270" y="-351" as="targetPoint" />
          </mxGeometry>
        </mxCell>
        <mxCell id="Du7ihi0lZH-QFvdKasJx-12" value="3: getPairsRoom()" style="html=1;verticalAlign=bottom;endArrow=block;curved=0;rounded=0;horizontal=0;" parent="1" edge="1">
          <mxGeometry x="0.1429" y="-10" width="80" relative="1" as="geometry">
            <mxPoint x="130" y="-330" as="sourcePoint" />
            <mxPoint x="130" y="-260" as="targetPoint" />
            <mxPoint as="offset" />
          </mxGeometry>
        </mxCell>
        <mxCell id="Du7ihi0lZH-QFvdKasJx-13" value="4: r2" style="html=1;verticalAlign=bottom;endArrow=open;dashed=1;endSize=8;curved=0;rounded=0;horizontal=0;" parent="1" edge="1">
          <mxGeometry x="-0.1429" y="9" relative="1" as="geometry">
            <mxPoint x="239" y="-260" as="sourcePoint" />
            <mxPoint x="239" y="-330" as="targetPoint" />
            <mxPoint as="offset" />
          </mxGeometry>
        </mxCell>
        <mxCell id="Du7ihi0lZH-QFvdKasJx-14" value="5: removePlayer(s)" style="html=1;verticalAlign=bottom;endArrow=block;curved=0;rounded=0;" parent="1" edge="1">
          <mxGeometry width="80" relative="1" as="geometry">
            <mxPoint x="390" y="-400" as="sourcePoint" />
            <mxPoint x="456" y="-400" as="targetPoint" />
          </mxGeometry>
        </mxCell>
        <mxCell id="Du7ihi0lZH-QFvdKasJx-15" value="" style="endArrow=none;html=1;rounded=0;" parent="1" source="Du7ihi0lZH-QFvdKasJx-4" target="Du7ihi0lZH-QFvdKasJx-2" edge="1">
          <mxGeometry width="50" height="50" relative="1" as="geometry">
            <mxPoint x="390" y="-240" as="sourcePoint" />
            <mxPoint x="440" y="-290" as="targetPoint" />
          </mxGeometry>
        </mxCell>
        <mxCell id="Du7ihi0lZH-QFvdKasJx-16" value="6: addCharacter(s)" style="html=1;verticalAlign=bottom;endArrow=block;curved=0;rounded=0;horizontal=1;" parent="1" edge="1">
          <mxGeometry x="0.7333" y="18" width="80" relative="1" as="geometry">
            <mxPoint x="360" y="-310" as="sourcePoint" />
            <mxPoint x="420" y="-280" as="targetPoint" />
            <mxPoint as="offset" />
          </mxGeometry>
        </mxCell>
      </root>
    </mxGraphModel>
  </diagram>
  <diagram id="nZAsTewtqVakTeSBx7uu" name="EnterRoom">
    <mxGraphModel dx="880" dy="532" grid="1" gridSize="10" guides="1" tooltips="1" connect="1" arrows="1" fold="1" page="1" pageScale="1" pageWidth="827" pageHeight="1169" math="0" shadow="0">
      <root>
        <mxCell id="0" />
        <mxCell id="1" parent="0" />
        <mxCell id="BR1jENmQXeQ02MUQEtQg-1" value="r2: Room" style="html=1;whiteSpace=wrap;" parent="1" vertex="1">
          <mxGeometry x="120" y="160" width="110" height="50" as="geometry" />
        </mxCell>
        <mxCell id="BR1jENmQXeQ02MUQEtQg-2" value="r1: Room" style="html=1;whiteSpace=wrap;" parent="1" vertex="1">
          <mxGeometry x="480" y="160" width="110" height="50" as="geometry" />
        </mxCell>
        <mxCell id="BR1jENmQXeQ02MUQEtQg-3" value="c2: Character" style="html=1;whiteSpace=wrap;" parent="1" vertex="1">
          <mxGeometry x="480" y="440" width="110" height="50" as="geometry" />
        </mxCell>
        <mxCell id="BR1jENmQXeQ02MUQEtQg-4" value="c1: Character" style="html=1;whiteSpace=wrap;" parent="1" vertex="1">
          <mxGeometry x="120" y="440" width="110" height="50" as="geometry" />
        </mxCell>
        <mxCell id="BR1jENmQXeQ02MUQEtQg-5" value="" style="endArrow=none;html=1;rounded=0;" parent="1" source="BR1jENmQXeQ02MUQEtQg-4" target="BR1jENmQXeQ02MUQEtQg-1" edge="1">
          <mxGeometry width="50" height="50" relative="1" as="geometry">
            <mxPoint x="390" y="300" as="sourcePoint" />
            <mxPoint x="440" y="250" as="targetPoint" />
          </mxGeometry>
        </mxCell>
        <mxCell id="BR1jENmQXeQ02MUQEtQg-6" value="" style="endArrow=none;html=1;rounded=0;entryX=0.927;entryY=0.96;entryDx=0;entryDy=0;entryPerimeter=0;" parent="1" source="BR1jENmQXeQ02MUQEtQg-3" target="BR1jENmQXeQ02MUQEtQg-1" edge="1">
          <mxGeometry width="50" height="50" relative="1" as="geometry">
            <mxPoint x="390" y="300" as="sourcePoint" />
            <mxPoint x="440" y="250" as="targetPoint" />
          </mxGeometry>
        </mxCell>
        <mxCell id="BR1jENmQXeQ02MUQEtQg-7" value="" style="endArrow=none;html=1;rounded=0;" parent="1" source="BR1jENmQXeQ02MUQEtQg-1" target="BR1jENmQXeQ02MUQEtQg-2" edge="1">
          <mxGeometry width="50" height="50" relative="1" as="geometry">
            <mxPoint x="390" y="300" as="sourcePoint" />
            <mxPoint x="440" y="250" as="targetPoint" />
          </mxGeometry>
        </mxCell>
        <mxCell id="BR1jENmQXeQ02MUQEtQg-8" value="" style="endArrow=none;html=1;rounded=0;entryX=0.75;entryY=0;entryDx=0;entryDy=0;" parent="1" source="BR1jENmQXeQ02MUQEtQg-1" target="BR1jENmQXeQ02MUQEtQg-1" edge="1">
          <mxGeometry width="50" height="50" relative="1" as="geometry">
            <mxPoint x="150" y="170" as="sourcePoint" />
            <mxPoint x="440" y="250" as="targetPoint" />
            <Array as="points">
              <mxPoint x="80" y="185" />
              <mxPoint x="80" y="100" />
              <mxPoint x="203" y="100" />
            </Array>
          </mxGeometry>
        </mxCell>
        <mxCell id="BR1jENmQXeQ02MUQEtQg-9" value="1: getRoom()" style="html=1;verticalAlign=bottom;endArrow=block;curved=0;rounded=0;horizontal=0;" parent="1" edge="1">
          <mxGeometry y="-10" width="80" relative="1" as="geometry">
            <mxPoint x="120" y="240" as="sourcePoint" />
            <mxPoint x="120" y="320" as="targetPoint" />
            <mxPoint as="offset" />
          </mxGeometry>
        </mxCell>
        <mxCell id="BR1jENmQXeQ02MUQEtQg-10" value="2: r" style="html=1;verticalAlign=bottom;endArrow=open;dashed=1;endSize=8;curved=0;rounded=0;horizontal=0;" parent="1" edge="1">
          <mxGeometry x="-0.1429" y="9" relative="1" as="geometry">
            <mxPoint x="229" y="310" as="sourcePoint" />
            <mxPoint x="229" y="240" as="targetPoint" />
            <mxPoint as="offset" />
          </mxGeometry>
        </mxCell>
        <mxCell id="QGA5v5P9WceaKEqZ0K7b-1" value="3: b: isAccessible()" style="html=1;verticalAlign=bottom;endArrow=block;curved=0;rounded=0;" parent="1" edge="1">
          <mxGeometry width="80" relative="1" as="geometry">
            <mxPoint x="90" y="90" as="sourcePoint" />
            <mxPoint x="170" y="90" as="targetPoint" />
          </mxGeometry>
        </mxCell>
        <mxCell id="QGA5v5P9WceaKEqZ0K7b-2" value="4: [b]:&amp;nbsp; removeCharacter(c1)" style="html=1;verticalAlign=bottom;endArrow=block;curved=0;rounded=0;" parent="1" edge="1">
          <mxGeometry width="80" relative="1" as="geometry">
            <mxPoint x="240" y="160" as="sourcePoint" />
            <mxPoint x="340" y="160" as="targetPoint" />
          </mxGeometry>
        </mxCell>
        <mxCell id="QGA5v5P9WceaKEqZ0K7b-3" value="5: [b]: onEntered(c1)&amp;nbsp;" style="html=1;verticalAlign=bottom;endArrow=block;curved=0;rounded=0;" parent="1" edge="1">
          <mxGeometry width="80" relative="1" as="geometry">
            <mxPoint x="120" y="70" as="sourcePoint" />
            <mxPoint x="200" y="70" as="targetPoint" />
          </mxGeometry>
        </mxCell>
        <mxCell id="QGA5v5P9WceaKEqZ0K7b-4" value="5.1: [b]: *[for all c2 :&lt;br style=&quot;border-color: var(--border-color); font-size: 12px; background-color: rgb(251, 251, 251);&quot;&gt;&lt;span style=&quot;font-size: 12px; background-color: rgb(251, 251, 251);&quot;&gt;listOfCharacters]: meet(c1)&lt;/span&gt;&amp;nbsp;" style="html=1;verticalAlign=bottom;endArrow=block;curved=0;rounded=0;" parent="1" edge="1">
          <mxGeometry x="0.5962" y="46" width="80" relative="1" as="geometry">
            <mxPoint x="350" y="290" as="sourcePoint" />
            <mxPoint x="440" y="360" as="targetPoint" />
            <mxPoint as="offset" />
          </mxGeometry>
        </mxCell>
        <mxCell id="EUZY-psFuJN2JxQwfi8S-1" value="sd Enter Room" style="shape=umlFrame;whiteSpace=wrap;html=1;pointerEvents=0;width=110;height=30;" parent="1" vertex="1">
          <mxGeometry x="30" y="10" width="670" height="540" as="geometry" />
        </mxCell>
      </root>
    </mxGraphModel>
  </diagram>
  <diagram id="k2JiJo2xfN4HFhqCQA1V" name="UseDice">
    <mxGraphModel dx="880" dy="532" grid="1" gridSize="10" guides="1" tooltips="1" connect="1" arrows="1" fold="1" page="1" pageScale="1" pageWidth="827" pageHeight="1169" math="0" shadow="0">
      <root>
        <mxCell id="0" />
        <mxCell id="1" parent="0" />
        <mxCell id="-vxjsBdtmUjl9USAOdlJ-2" value="d: Dice" style="html=1;whiteSpace=wrap;" parent="1" vertex="1">
          <mxGeometry x="414" y="160" width="110" height="50" as="geometry" />
        </mxCell>
        <mxCell id="-vxjsBdtmUjl9USAOdlJ-3" value="s: Student" style="html=1;whiteSpace=wrap;" parent="1" vertex="1">
          <mxGeometry x="120" y="160" width="110" height="50" as="geometry" />
        </mxCell>
        <mxCell id="-vxjsBdtmUjl9USAOdlJ-4" value="" style="endArrow=none;html=1;rounded=0;" parent="1" source="-vxjsBdtmUjl9USAOdlJ-3" target="-vxjsBdtmUjl9USAOdlJ-2" edge="1">
          <mxGeometry width="50" height="50" relative="1" as="geometry">
            <mxPoint x="390" y="300" as="sourcePoint" />
            <mxPoint x="440" y="250" as="targetPoint" />
          </mxGeometry>
        </mxCell>
        <mxCell id="-vxjsBdtmUjl9USAOdlJ-5" value="1: use(s)" style="html=1;verticalAlign=bottom;endArrow=block;curved=0;rounded=0;" parent="1" edge="1">
          <mxGeometry width="80" relative="1" as="geometry">
            <mxPoint x="250" y="159" as="sourcePoint" />
            <mxPoint x="330" y="159" as="targetPoint" />
          </mxGeometry>
        </mxCell>
        <mxCell id="-vxjsBdtmUjl9USAOdlJ-6" value="" style="endArrow=none;html=1;rounded=0;" parent="1" source="-vxjsBdtmUjl9USAOdlJ-2" target="-vxjsBdtmUjl9USAOdlJ-2" edge="1">
          <mxGeometry width="50" height="50" relative="1" as="geometry">
            <mxPoint x="390" y="300" as="sourcePoint" />
            <mxPoint x="440" y="250" as="targetPoint" />
            <Array as="points">
              <mxPoint x="470" y="120" />
              <mxPoint x="610" y="120" />
              <mxPoint x="610" y="185" />
            </Array>
          </mxGeometry>
        </mxCell>
        <mxCell id="-vxjsBdtmUjl9USAOdlJ-7" value="1.1: r: throw()" style="html=1;verticalAlign=bottom;endArrow=block;curved=0;rounded=0;" parent="1" edge="1">
          <mxGeometry width="80" relative="1" as="geometry">
            <mxPoint x="500" y="110" as="sourcePoint" />
            <mxPoint x="580" y="110" as="targetPoint" />
          </mxGeometry>
        </mxCell>
        <mxCell id="-vxjsBdtmUjl9USAOdlJ-8" value="1.1.1:&amp;nbsp; addRounds(r)" style="html=1;verticalAlign=bottom;endArrow=block;curved=0;rounded=0;" parent="1" edge="1">
          <mxGeometry width="80" relative="1" as="geometry">
            <mxPoint x="330" y="210" as="sourcePoint" />
            <mxPoint x="250" y="210" as="targetPoint" />
          </mxGeometry>
        </mxCell>
        <mxCell id="-vxjsBdtmUjl9USAOdlJ-9" value="sd Use Dice" style="shape=umlFrame;whiteSpace=wrap;html=1;pointerEvents=0;width=76;height=30;" parent="1" vertex="1">
          <mxGeometry x="60" y="60" width="610" height="200" as="geometry" />
        </mxCell>
      </root>
    </mxGraphModel>
  </diagram>
  <diagram id="4XByZ-VQZwRT9DdYOekh" name="UseFFP2">
    <mxGraphModel dx="880" dy="532" grid="1" gridSize="10" guides="1" tooltips="1" connect="1" arrows="1" fold="1" page="1" pageScale="1" pageWidth="827" pageHeight="1169" math="0" shadow="0">
      <root>
        <mxCell id="0" />
        <mxCell id="1" parent="0" />
        <mxCell id="sYDVYwgNXWHB4dJMzSJa-1" value="f: FFP2" style="html=1;whiteSpace=wrap;" parent="1" vertex="1">
          <mxGeometry x="400" y="160" width="110" height="50" as="geometry" />
        </mxCell>
        <mxCell id="sYDVYwgNXWHB4dJMzSJa-2" value="s: Student" style="html=1;whiteSpace=wrap;" parent="1" vertex="1">
          <mxGeometry x="120" y="160" width="110" height="50" as="geometry" />
        </mxCell>
        <mxCell id="sYDVYwgNXWHB4dJMzSJa-3" value="" style="endArrow=none;html=1;rounded=0;" parent="1" source="sYDVYwgNXWHB4dJMzSJa-2" target="sYDVYwgNXWHB4dJMzSJa-1" edge="1">
          <mxGeometry width="50" height="50" relative="1" as="geometry">
            <mxPoint x="390" y="270" as="sourcePoint" />
            <mxPoint x="440" y="220" as="targetPoint" />
          </mxGeometry>
        </mxCell>
        <mxCell id="sYDVYwgNXWHB4dJMzSJa-4" value="1: use(s)" style="html=1;verticalAlign=bottom;endArrow=block;curved=0;rounded=0;" parent="1" edge="1">
          <mxGeometry width="80" relative="1" as="geometry">
            <mxPoint x="250" y="159" as="sourcePoint" />
            <mxPoint x="330" y="159" as="targetPoint" />
          </mxGeometry>
        </mxCell>
        <mxCell id="sYDVYwgNXWHB4dJMzSJa-5" value="1.1: addMaskedRounds(2)" style="html=1;verticalAlign=bottom;endArrow=block;curved=0;rounded=0;" parent="1" edge="1">
          <mxGeometry width="80" relative="1" as="geometry">
            <mxPoint x="340" y="209" as="sourcePoint" />
            <mxPoint x="260" y="209" as="targetPoint" />
          </mxGeometry>
        </mxCell>
        <mxCell id="sYDVYwgNXWHB4dJMzSJa-6" value="sd Use FFP2" style="shape=umlFrame;whiteSpace=wrap;html=1;pointerEvents=0;width=90;height=30;" parent="1" vertex="1">
          <mxGeometry x="70" y="110" width="510" height="170" as="geometry" />
        </mxCell>
      </root>
    </mxGraphModel>
  </diagram>
  <diagram id="CnvNlMvuDq1tp93OCKGI" name="UseTransistor">
    <mxGraphModel dx="880" dy="532" grid="1" gridSize="10" guides="1" tooltips="1" connect="1" arrows="1" fold="1" page="1" pageScale="1" pageWidth="827" pageHeight="1169" math="0" shadow="0">
      <root>
        <mxCell id="0" />
        <mxCell id="1" parent="0" />
        <mxCell id="Nq0okJVS5V2XWCBbkNmB-1" value="t: Transistor" style="html=1;whiteSpace=wrap;" parent="1" vertex="1">
          <mxGeometry x="480" y="160" width="110" height="50" as="geometry" />
        </mxCell>
        <mxCell id="Nq0okJVS5V2XWCBbkNmB-2" value="s: Student" style="html=1;whiteSpace=wrap;" parent="1" vertex="1">
          <mxGeometry x="160" y="160" width="110" height="50" as="geometry" />
        </mxCell>
        <mxCell id="Nq0okJVS5V2XWCBbkNmB-3" value="r: Room" style="html=1;whiteSpace=wrap;" parent="1" vertex="1">
          <mxGeometry x="480" y="400" width="110" height="50" as="geometry" />
        </mxCell>
        <mxCell id="Nq0okJVS5V2XWCBbkNmB-4" value="" style="endArrow=none;html=1;rounded=0;" parent="1" source="Nq0okJVS5V2XWCBbkNmB-3" target="Nq0okJVS5V2XWCBbkNmB-1" edge="1">
          <mxGeometry width="50" height="50" relative="1" as="geometry">
            <mxPoint x="390" y="300" as="sourcePoint" />
            <mxPoint x="440" y="250" as="targetPoint" />
          </mxGeometry>
        </mxCell>
        <mxCell id="Nq0okJVS5V2XWCBbkNmB-5" value="" style="endArrow=none;html=1;rounded=0;" parent="1" source="Nq0okJVS5V2XWCBbkNmB-1" target="Nq0okJVS5V2XWCBbkNmB-2" edge="1">
          <mxGeometry width="50" height="50" relative="1" as="geometry">
            <mxPoint x="390" y="300" as="sourcePoint" />
            <mxPoint x="440" y="250" as="targetPoint" />
          </mxGeometry>
        </mxCell>
        <mxCell id="Nq0okJVS5V2XWCBbkNmB-6" value="1.2: addTransistor(t)" style="html=1;verticalAlign=bottom;endArrow=block;curved=0;rounded=0;horizontal=0;" parent="1" edge="1">
          <mxGeometry y="-10" width="80" relative="1" as="geometry">
            <mxPoint x="480" y="240" as="sourcePoint" />
            <mxPoint x="480" y="380" as="targetPoint" />
            <mxPoint as="offset" />
          </mxGeometry>
        </mxCell>
        <mxCell id="Nq0okJVS5V2XWCBbkNmB-7" value="1.1 : getRoom()" style="html=1;verticalAlign=bottom;endArrow=block;curved=0;rounded=0;" parent="1" edge="1">
          <mxGeometry width="80" relative="1" as="geometry">
            <mxPoint x="360" y="209" as="sourcePoint" />
            <mxPoint x="280" y="209" as="targetPoint" />
          </mxGeometry>
        </mxCell>
        <mxCell id="Nq0okJVS5V2XWCBbkNmB-8" value="1: use(s)" style="html=1;verticalAlign=bottom;endArrow=block;curved=0;rounded=0;" parent="1" edge="1">
          <mxGeometry width="80" relative="1" as="geometry">
            <mxPoint x="280" y="160" as="sourcePoint" />
            <mxPoint x="360" y="160" as="targetPoint" />
          </mxGeometry>
        </mxCell>
        <mxCell id="Nq0okJVS5V2XWCBbkNmB-9" value="1.1.1: r" style="html=1;verticalAlign=bottom;endArrow=open;dashed=1;endSize=8;curved=0;rounded=0;horizontal=1;" parent="1" edge="1">
          <mxGeometry relative="1" as="geometry">
            <mxPoint x="374" y="160" as="sourcePoint" />
            <mxPoint x="454" y="160" as="targetPoint" />
          </mxGeometry>
        </mxCell>
        <mxCell id="S2HwA52qIB7YnYNg0K9u-1" value="sd Use Transistor" style="shape=umlFrame;whiteSpace=wrap;html=1;pointerEvents=0;width=130;height=40;" parent="1" vertex="1">
          <mxGeometry x="70" y="100" width="560" height="370" as="geometry" />
        </mxCell>
      </root>
    </mxGraphModel>
  </diagram>
  <diagram id="s4jxtB0lXa8OtQLlaIGB" name="UseCamambert">
    <mxGraphModel dx="880" dy="532" grid="1" gridSize="10" guides="1" tooltips="1" connect="1" arrows="1" fold="1" page="1" pageScale="1" pageWidth="827" pageHeight="1169" math="0" shadow="0">
      <root>
        <mxCell id="0" />
        <mxCell id="1" parent="0" />
        <mxCell id="m4pxHZo4yDfskvT_i-JV-1" value="c: Camambert" style="html=1;whiteSpace=wrap;" parent="1" vertex="1">
          <mxGeometry x="440" y="120" width="110" height="50" as="geometry" />
        </mxCell>
        <mxCell id="m4pxHZo4yDfskvT_i-JV-2" value="gc: GameController" style="html=1;whiteSpace=wrap;" parent="1" vertex="1">
          <mxGeometry x="440" y="360" width="110" height="50" as="geometry" />
        </mxCell>
        <mxCell id="m4pxHZo4yDfskvT_i-JV-3" value="g: GasRoom" style="html=1;whiteSpace=wrap;" parent="1" vertex="1">
          <mxGeometry x="680" y="120" width="110" height="50" as="geometry" />
        </mxCell>
        <mxCell id="m4pxHZo4yDfskvT_i-JV-4" value="r: Room" style="html=1;whiteSpace=wrap;" parent="1" vertex="1">
          <mxGeometry x="120" y="360" width="110" height="50" as="geometry" />
        </mxCell>
        <mxCell id="m4pxHZo4yDfskvT_i-JV-5" value="s: Student" style="html=1;whiteSpace=wrap;" parent="1" vertex="1">
          <mxGeometry x="120" y="120" width="110" height="50" as="geometry" />
        </mxCell>
        <mxCell id="m4pxHZo4yDfskvT_i-JV-6" value="" style="endArrow=none;html=1;rounded=0;" parent="1" source="m4pxHZo4yDfskvT_i-JV-5" target="m4pxHZo4yDfskvT_i-JV-1" edge="1">
          <mxGeometry width="50" height="50" relative="1" as="geometry">
            <mxPoint x="390" y="300" as="sourcePoint" />
            <mxPoint x="440" y="250" as="targetPoint" />
          </mxGeometry>
        </mxCell>
        <mxCell id="m4pxHZo4yDfskvT_i-JV-7" value="" style="endArrow=none;html=1;rounded=0;entryX=0.25;entryY=1;entryDx=0;entryDy=0;" parent="1" source="m4pxHZo4yDfskvT_i-JV-4" target="m4pxHZo4yDfskvT_i-JV-1" edge="1">
          <mxGeometry width="50" height="50" relative="1" as="geometry">
            <mxPoint x="390" y="300" as="sourcePoint" />
            <mxPoint x="440" y="250" as="targetPoint" />
          </mxGeometry>
        </mxCell>
        <mxCell id="m4pxHZo4yDfskvT_i-JV-8" value="" style="endArrow=none;html=1;rounded=0;" parent="1" source="m4pxHZo4yDfskvT_i-JV-2" target="m4pxHZo4yDfskvT_i-JV-1" edge="1">
          <mxGeometry width="50" height="50" relative="1" as="geometry">
            <mxPoint x="390" y="300" as="sourcePoint" />
            <mxPoint x="440" y="250" as="targetPoint" />
          </mxGeometry>
        </mxCell>
        <mxCell id="m4pxHZo4yDfskvT_i-JV-9" value="" style="endArrow=none;html=1;rounded=0;" parent="1" source="m4pxHZo4yDfskvT_i-JV-1" target="m4pxHZo4yDfskvT_i-JV-3" edge="1">
          <mxGeometry width="50" height="50" relative="1" as="geometry">
            <mxPoint x="390" y="300" as="sourcePoint" />
            <mxPoint x="440" y="250" as="targetPoint" />
          </mxGeometry>
        </mxCell>
        <mxCell id="m4pxHZo4yDfskvT_i-JV-10" value="1: use(s)" style="html=1;verticalAlign=bottom;endArrow=block;curved=0;rounded=0;" parent="1" edge="1">
          <mxGeometry width="80" relative="1" as="geometry">
            <mxPoint x="240" y="120" as="sourcePoint" />
            <mxPoint x="320" y="120" as="targetPoint" />
          </mxGeometry>
        </mxCell>
        <mxCell id="I1V4JsV2NBVQt4Nd3BMe-1" value="1.1.1: getRoom()" style="html=1;verticalAlign=bottom;endArrow=block;curved=0;rounded=0;" parent="1" edge="1">
          <mxGeometry width="80" relative="1" as="geometry">
            <mxPoint x="320" y="170" as="sourcePoint" />
            <mxPoint x="240" y="170" as="targetPoint" />
          </mxGeometry>
        </mxCell>
        <mxCell id="XoQq-FdVZH6No3h-3wqu-2" value="1.1.1.1: r" style="html=1;verticalAlign=bottom;endArrow=open;dashed=1;endSize=8;curved=0;rounded=0;" parent="1" edge="1">
          <mxGeometry relative="1" as="geometry">
            <mxPoint x="340" y="120" as="sourcePoint" />
            <mxPoint x="420" y="120" as="targetPoint" />
          </mxGeometry>
        </mxCell>
        <mxCell id="XoQq-FdVZH6No3h-3wqu-3" value="&amp;lt;&amp;lt;create&amp;gt;&amp;gt;&lt;br&gt;1.1:" style="html=1;verticalAlign=bottom;endArrow=block;curved=0;rounded=0;" parent="1" edge="1">
          <mxGeometry width="80" relative="1" as="geometry">
            <mxPoint x="570" y="120" as="sourcePoint" />
            <mxPoint x="650" y="120" as="targetPoint" />
          </mxGeometry>
        </mxCell>
        <mxCell id="XoQq-FdVZH6No3h-3wqu-4" value="1.2: copyToRoom(g)" style="html=1;verticalAlign=bottom;endArrow=block;curved=0;rounded=0;" parent="1" edge="1">
          <mxGeometry x="0.0256" y="-25" width="80" relative="1" as="geometry">
            <mxPoint x="370" y="220" as="sourcePoint" />
            <mxPoint x="280" y="290" as="targetPoint" />
            <mxPoint as="offset" />
          </mxGeometry>
        </mxCell>
        <mxCell id="XoQq-FdVZH6No3h-3wqu-5" value="1.3: addRoom(g)" style="html=1;verticalAlign=bottom;endArrow=block;curved=0;rounded=0;horizontal=0;" parent="1" edge="1">
          <mxGeometry y="-10" width="80" relative="1" as="geometry">
            <mxPoint x="460" y="210" as="sourcePoint" />
            <mxPoint x="460" y="310" as="targetPoint" />
            <mxPoint as="offset" />
          </mxGeometry>
        </mxCell>
        <mxCell id="XoQq-FdVZH6No3h-3wqu-6" value="1.4: removeRoom(r)" style="html=1;verticalAlign=bottom;endArrow=block;curved=0;rounded=0;horizontal=0;" parent="1" edge="1">
          <mxGeometry x="-0.0909" y="-10" width="80" relative="1" as="geometry">
            <mxPoint x="540" y="190" as="sourcePoint" />
            <mxPoint x="540" y="300" as="targetPoint" />
            <mxPoint as="offset" />
          </mxGeometry>
        </mxCell>
        <mxCell id="16G7J95jnya1tXmWTlaM-1" value="sd Use Camambert" style="shape=umlFrame;whiteSpace=wrap;html=1;pointerEvents=0;width=140;height=30;" parent="1" vertex="1">
          <mxGeometry x="90" y="60" width="720" height="400" as="geometry" />
        </mxCell>
      </root>
    </mxGraphModel>
  </diagram>
  <diagram id="ozSqL5kNkUjPIHRUAjrX" name="UseGlassOfBeer">
    <mxGraphModel dx="880" dy="532" grid="1" gridSize="10" guides="1" tooltips="1" connect="1" arrows="1" fold="1" page="1" pageScale="1" pageWidth="827" pageHeight="1169" math="0" shadow="0">
      <root>
        <mxCell id="0" />
        <mxCell id="1" parent="0" />
        <mxCell id="ZBtUGxOR7lVsQSNLqBQ1-1" value="g: GlassOfBeer" style="html=1;whiteSpace=wrap;" parent="1" vertex="1">
          <mxGeometry x="400" y="160" width="110" height="50" as="geometry" />
        </mxCell>
        <mxCell id="ZBtUGxOR7lVsQSNLqBQ1-2" value="s: Student" style="html=1;whiteSpace=wrap;" parent="1" vertex="1">
          <mxGeometry x="120" y="160" width="110" height="50" as="geometry" />
        </mxCell>
        <mxCell id="ZBtUGxOR7lVsQSNLqBQ1-3" value="" style="endArrow=none;html=1;rounded=0;" parent="1" source="ZBtUGxOR7lVsQSNLqBQ1-2" target="ZBtUGxOR7lVsQSNLqBQ1-1" edge="1">
          <mxGeometry width="50" height="50" relative="1" as="geometry">
            <mxPoint x="390" y="270" as="sourcePoint" />
            <mxPoint x="440" y="220" as="targetPoint" />
          </mxGeometry>
        </mxCell>
        <mxCell id="ZBtUGxOR7lVsQSNLqBQ1-4" value="1: use(s)" style="html=1;verticalAlign=bottom;endArrow=block;curved=0;rounded=0;" parent="1" edge="1">
          <mxGeometry width="80" relative="1" as="geometry">
            <mxPoint x="250" y="159" as="sourcePoint" />
            <mxPoint x="330" y="159" as="targetPoint" />
          </mxGeometry>
        </mxCell>
        <mxCell id="ZBtUGxOR7lVsQSNLqBQ1-5" value="1.1: setProtected(true)" style="html=1;verticalAlign=bottom;endArrow=block;curved=0;rounded=0;" parent="1" edge="1">
          <mxGeometry width="80" relative="1" as="geometry">
            <mxPoint x="340" y="209" as="sourcePoint" />
            <mxPoint x="260" y="209" as="targetPoint" />
          </mxGeometry>
        </mxCell>
        <mxCell id="ZBtUGxOR7lVsQSNLqBQ1-6" value="sd Use Glass Of Beer" style="shape=umlFrame;whiteSpace=wrap;html=1;pointerEvents=0;width=130;height=30;" parent="1" vertex="1">
          <mxGeometry x="70" y="110" width="510" height="150" as="geometry" />
        </mxCell>
      </root>
    </mxGraphModel>
  </diagram>
  <diagram id="WU2vQYqxBTs-SWTDHWyh" name="UseWetRag">
    <mxGraphModel dx="880" dy="532" grid="1" gridSize="10" guides="1" tooltips="1" connect="1" arrows="1" fold="1" page="1" pageScale="1" pageWidth="827" pageHeight="1169" math="0" shadow="0">
      <root>
        <mxCell id="0" />
        <mxCell id="1" parent="0" />
        <mxCell id="LsAcMS4K8BbHkdj_w5s0-1" value="w: WetRag" style="html=1;whiteSpace=wrap;" vertex="1" parent="1">
          <mxGeometry x="440" y="120" width="110" height="50" as="geometry" />
        </mxCell>
        <mxCell id="LsAcMS4K8BbHkdj_w5s0-2" value="s: Student" style="html=1;whiteSpace=wrap;" vertex="1" parent="1">
          <mxGeometry x="120" y="120" width="110" height="50" as="geometry" />
        </mxCell>
        <mxCell id="LsAcMS4K8BbHkdj_w5s0-3" value="" style="endArrow=none;html=1;rounded=0;" edge="1" parent="1" source="LsAcMS4K8BbHkdj_w5s0-2" target="LsAcMS4K8BbHkdj_w5s0-1">
          <mxGeometry width="50" height="50" relative="1" as="geometry">
            <mxPoint x="390" y="300" as="sourcePoint" />
            <mxPoint x="440" y="250" as="targetPoint" />
          </mxGeometry>
        </mxCell>
        <mxCell id="LsAcMS4K8BbHkdj_w5s0-4" value="1: use(s)" style="html=1;verticalAlign=bottom;endArrow=block;curved=0;rounded=0;" edge="1" parent="1">
          <mxGeometry width="80" relative="1" as="geometry">
            <mxPoint x="240" y="120" as="sourcePoint" />
            <mxPoint x="320" y="120" as="targetPoint" />
          </mxGeometry>
        </mxCell>
        <mxCell id="LsAcMS4K8BbHkdj_w5s0-5" value="1.1: getRoom()" style="html=1;verticalAlign=bottom;endArrow=block;curved=0;rounded=0;" edge="1" parent="1">
          <mxGeometry width="80" relative="1" as="geometry">
            <mxPoint x="320" y="170" as="sourcePoint" />
            <mxPoint x="240" y="170" as="targetPoint" />
          </mxGeometry>
        </mxCell>
        <mxCell id="LsAcMS4K8BbHkdj_w5s0-6" value="1.1.1: r" style="html=1;verticalAlign=bottom;endArrow=open;dashed=1;endSize=8;curved=0;rounded=0;" edge="1" parent="1">
          <mxGeometry relative="1" as="geometry">
            <mxPoint x="340" y="120" as="sourcePoint" />
            <mxPoint x="420" y="120" as="targetPoint" />
          </mxGeometry>
        </mxCell>
        <mxCell id="LsAcMS4K8BbHkdj_w5s0-7" value="r: Room" style="html=1;whiteSpace=wrap;" vertex="1" parent="1">
          <mxGeometry x="440" y="280" width="110" height="50" as="geometry" />
        </mxCell>
        <mxCell id="LsAcMS4K8BbHkdj_w5s0-8" value="" style="html=1;verticalAlign=bottom;endArrow=block;curved=0;rounded=0;" edge="1" parent="1">
          <mxGeometry width="80" relative="1" as="geometry">
            <mxPoint x="440" y="190" as="sourcePoint" />
            <mxPoint x="440" y="260" as="targetPoint" />
          </mxGeometry>
        </mxCell>
        <mxCell id="LsAcMS4K8BbHkdj_w5s0-10" value="1.2: addWetRag(w)" style="edgeLabel;html=1;align=center;verticalAlign=middle;resizable=0;points=[];horizontal=0;" vertex="1" connectable="0" parent="LsAcMS4K8BbHkdj_w5s0-8">
          <mxGeometry x="0.2" y="-1" relative="1" as="geometry">
            <mxPoint x="-9" y="-2" as="offset" />
          </mxGeometry>
        </mxCell>
        <mxCell id="LsAcMS4K8BbHkdj_w5s0-9" value="" style="endArrow=none;html=1;rounded=0;" edge="1" parent="1" source="LsAcMS4K8BbHkdj_w5s0-7" target="LsAcMS4K8BbHkdj_w5s0-1">
          <mxGeometry width="50" height="50" relative="1" as="geometry">
            <mxPoint x="390" y="300" as="sourcePoint" />
            <mxPoint x="440" y="250" as="targetPoint" />
          </mxGeometry>
        </mxCell>
        <mxCell id="LsAcMS4K8BbHkdj_w5s0-11" value="sd Use Wet Rag" style="shape=umlFrame;whiteSpace=wrap;html=1;pointerEvents=0;width=120;height=30;" vertex="1" parent="1">
          <mxGeometry x="100" y="60" width="480" height="320" as="geometry" />
        </mxCell>
      </root>
    </mxGraphModel>
  </diagram>
  <diagram id="Y3iAYQrIvd8GqUJJT6LO" name="PickupDice">
    <mxGraphModel dx="880" dy="532" grid="1" gridSize="10" guides="1" tooltips="1" connect="1" arrows="1" fold="1" page="1" pageScale="1" pageWidth="827" pageHeight="1169" math="0" shadow="0">
      <root>
        <mxCell id="0" />
        <mxCell id="1" parent="0" />
        <mxCell id="FvLUsBCnhafEjZFDkFG3-1" value="d: Dice" style="html=1;whiteSpace=wrap;" parent="1" vertex="1">
          <mxGeometry x="120" y="320" width="110" height="50" as="geometry" />
        </mxCell>
        <mxCell id="FvLUsBCnhafEjZFDkFG3-2" value="r: Room" style="html=1;whiteSpace=wrap;" parent="1" vertex="1">
          <mxGeometry x="400" y="120" width="110" height="50" as="geometry" />
        </mxCell>
        <mxCell id="FvLUsBCnhafEjZFDkFG3-3" value="s: Student" style="html=1;whiteSpace=wrap;" parent="1" vertex="1">
          <mxGeometry x="120" y="120" width="110" height="50" as="geometry" />
        </mxCell>
        <mxCell id="FvLUsBCnhafEjZFDkFG3-6" value="" style="endArrow=none;html=1;rounded=0;" parent="1" source="FvLUsBCnhafEjZFDkFG3-1" target="FvLUsBCnhafEjZFDkFG3-3" edge="1">
          <mxGeometry width="50" height="50" relative="1" as="geometry">
            <mxPoint x="390" y="300" as="sourcePoint" />
            <mxPoint x="440" y="250" as="targetPoint" />
          </mxGeometry>
        </mxCell>
        <mxCell id="FvLUsBCnhafEjZFDkFG3-7" value="" style="endArrow=none;html=1;rounded=0;" parent="1" source="FvLUsBCnhafEjZFDkFG3-3" target="FvLUsBCnhafEjZFDkFG3-2" edge="1">
          <mxGeometry width="50" height="50" relative="1" as="geometry">
            <mxPoint x="390" y="300" as="sourcePoint" />
            <mxPoint x="440" y="250" as="targetPoint" />
          </mxGeometry>
        </mxCell>
        <mxCell id="FvLUsBCnhafEjZFDkFG3-8" value="1: removeItem(d)" style="html=1;verticalAlign=bottom;endArrow=block;curved=0;rounded=0;" parent="1" edge="1">
          <mxGeometry width="80" relative="1" as="geometry">
            <mxPoint x="250" y="119" as="sourcePoint" />
            <mxPoint x="330" y="119" as="targetPoint" />
          </mxGeometry>
        </mxCell>
        <mxCell id="FvLUsBCnhafEjZFDkFG3-9" value="2: onPickedUp(s)" style="html=1;verticalAlign=bottom;endArrow=block;curved=0;rounded=0;horizontal=0;" parent="1" edge="1">
          <mxGeometry y="-10" width="80" relative="1" as="geometry">
            <mxPoint x="120" y="190" as="sourcePoint" />
            <mxPoint x="120" y="290" as="targetPoint" />
            <mxPoint as="offset" />
          </mxGeometry>
        </mxCell>
        <mxCell id="3uUKlrZCxSsK30ko9j_N-1" value="sd Pick Up Dice" style="shape=umlFrame;whiteSpace=wrap;html=1;pointerEvents=0;width=110;height=30;" vertex="1" parent="1">
          <mxGeometry x="40" y="60" width="530" height="340" as="geometry" />
        </mxCell>
      </root>
    </mxGraphModel>
  </diagram>
  <diagram id="VSjXjcWOq3Na6rR_r85p" name="PickupFFP2">
    <mxGraphModel dx="880" dy="532" grid="1" gridSize="10" guides="1" tooltips="1" connect="1" arrows="1" fold="1" page="1" pageScale="1" pageWidth="827" pageHeight="1169" math="0" shadow="0">
      <root>
        <mxCell id="0" />
        <mxCell id="1" parent="0" />
        <mxCell id="UeJXubGM4-hdfsY0yq5i-1" value="f: FFP2" style="html=1;whiteSpace=wrap;" vertex="1" parent="1">
          <mxGeometry x="120" y="320" width="110" height="50" as="geometry" />
        </mxCell>
        <mxCell id="UeJXubGM4-hdfsY0yq5i-2" value="r: Room" style="html=1;whiteSpace=wrap;" vertex="1" parent="1">
          <mxGeometry x="440" y="120" width="110" height="50" as="geometry" />
        </mxCell>
        <mxCell id="UeJXubGM4-hdfsY0yq5i-3" value="s: Student" style="html=1;whiteSpace=wrap;" vertex="1" parent="1">
          <mxGeometry x="120" y="120" width="110" height="50" as="geometry" />
        </mxCell>
        <mxCell id="UeJXubGM4-hdfsY0yq5i-4" value="" style="endArrow=none;html=1;rounded=0;" edge="1" parent="1" source="UeJXubGM4-hdfsY0yq5i-1" target="UeJXubGM4-hdfsY0yq5i-3">
          <mxGeometry width="50" height="50" relative="1" as="geometry">
            <mxPoint x="390" y="300" as="sourcePoint" />
            <mxPoint x="440" y="250" as="targetPoint" />
          </mxGeometry>
        </mxCell>
        <mxCell id="UeJXubGM4-hdfsY0yq5i-5" value="" style="endArrow=none;html=1;rounded=0;" edge="1" parent="1" source="UeJXubGM4-hdfsY0yq5i-2" target="UeJXubGM4-hdfsY0yq5i-3">
          <mxGeometry width="50" height="50" relative="1" as="geometry">
            <mxPoint x="390" y="300" as="sourcePoint" />
            <mxPoint x="440" y="250" as="targetPoint" />
          </mxGeometry>
        </mxCell>
        <mxCell id="UeJXubGM4-hdfsY0yq5i-7" value="2: onPickedUp(s)" style="html=1;verticalAlign=bottom;endArrow=block;curved=0;rounded=0;horizontal=0;" edge="1" parent="1">
          <mxGeometry x="-0.1429" y="-9" width="80" relative="1" as="geometry">
            <mxPoint x="119" y="200" as="sourcePoint" />
            <mxPoint x="119" y="270" as="targetPoint" />
            <mxPoint as="offset" />
          </mxGeometry>
        </mxCell>
        <mxCell id="UeJXubGM4-hdfsY0yq5i-8" value="1: removeItem(f)" style="html=1;verticalAlign=bottom;endArrow=block;curved=0;rounded=0;" edge="1" parent="1">
          <mxGeometry width="80" relative="1" as="geometry">
            <mxPoint x="250" y="119" as="sourcePoint" />
            <mxPoint x="330" y="119" as="targetPoint" />
          </mxGeometry>
        </mxCell>
        <mxCell id="BYIDeqc4eiO5Ark26_-I-1" value="sd Pick Up FFP2" style="shape=umlFrame;whiteSpace=wrap;html=1;pointerEvents=0;width=110;height=30;" vertex="1" parent="1">
          <mxGeometry x="40" y="60" width="530" height="340" as="geometry" />
        </mxCell>
      </root>
    </mxGraphModel>
  </diagram>
  <diagram id="wV7YJg8A4tXavKmiMWp8" name="PickUpTVSZ">
    <mxGraphModel dx="880" dy="532" grid="1" gridSize="10" guides="1" tooltips="1" connect="1" arrows="1" fold="1" page="1" pageScale="1" pageWidth="827" pageHeight="1169" math="0" shadow="0">
      <root>
        <mxCell id="0" />
        <mxCell id="1" parent="0" />
        <mxCell id="u2Yz6t_pxYuRWbe28RRW-1" value="t: TVSZ" style="html=1;whiteSpace=wrap;" vertex="1" parent="1">
          <mxGeometry x="140" y="480" width="110" height="50" as="geometry" />
        </mxCell>
        <mxCell id="u2Yz6t_pxYuRWbe28RRW-2" value="r: Room" style="html=1;whiteSpace=wrap;" vertex="1" parent="1">
          <mxGeometry x="460" y="120" width="110" height="50" as="geometry" />
        </mxCell>
        <mxCell id="u2Yz6t_pxYuRWbe28RRW-3" value="s: Student" style="html=1;whiteSpace=wrap;" vertex="1" parent="1">
          <mxGeometry x="140" y="120" width="110" height="50" as="geometry" />
        </mxCell>
        <mxCell id="u2Yz6t_pxYuRWbe28RRW-4" value="" style="endArrow=none;html=1;rounded=0;" edge="1" parent="1" source="u2Yz6t_pxYuRWbe28RRW-1" target="u2Yz6t_pxYuRWbe28RRW-3">
          <mxGeometry width="50" height="50" relative="1" as="geometry">
            <mxPoint x="410" y="300" as="sourcePoint" />
            <mxPoint x="460" y="250" as="targetPoint" />
          </mxGeometry>
        </mxCell>
        <mxCell id="u2Yz6t_pxYuRWbe28RRW-5" value="" style="endArrow=none;html=1;rounded=0;" edge="1" parent="1" source="u2Yz6t_pxYuRWbe28RRW-2" target="u2Yz6t_pxYuRWbe28RRW-3">
          <mxGeometry width="50" height="50" relative="1" as="geometry">
            <mxPoint x="410" y="300" as="sourcePoint" />
            <mxPoint x="460" y="250" as="targetPoint" />
          </mxGeometry>
        </mxCell>
        <mxCell id="u2Yz6t_pxYuRWbe28RRW-6" value="2: onPickedUp(s)" style="html=1;verticalAlign=bottom;endArrow=block;curved=0;rounded=0;horizontal=0;" edge="1" parent="1">
          <mxGeometry x="-0.1429" y="-9" width="80" relative="1" as="geometry">
            <mxPoint x="139" y="200" as="sourcePoint" />
            <mxPoint x="139" y="270" as="targetPoint" />
            <mxPoint as="offset" />
          </mxGeometry>
        </mxCell>
        <mxCell id="u2Yz6t_pxYuRWbe28RRW-7" value="1: removeItem(t)" style="html=1;verticalAlign=bottom;endArrow=block;curved=0;rounded=0;" edge="1" parent="1">
          <mxGeometry width="80" relative="1" as="geometry">
            <mxPoint x="270" y="119" as="sourcePoint" />
            <mxPoint x="350" y="119" as="targetPoint" />
          </mxGeometry>
        </mxCell>
        <mxCell id="u2Yz6t_pxYuRWbe28RRW-8" value="sd Pick Up TVSZ" style="shape=umlFrame;whiteSpace=wrap;html=1;pointerEvents=0;width=110;height=30;" vertex="1" parent="1">
          <mxGeometry x="40" y="60" width="690" height="620" as="geometry" />
        </mxCell>
        <mxCell id="c-bovMz5XTutJOfnZvBF-1" value="2.1: getTVSZ()" style="html=1;verticalAlign=bottom;endArrow=block;curved=0;rounded=0;horizontal=0;" edge="1" parent="1">
          <mxGeometry x="0.1429" y="9" width="80" relative="1" as="geometry">
            <mxPoint x="249" y="270" as="sourcePoint" />
            <mxPoint x="249" y="200" as="targetPoint" />
            <mxPoint as="offset" />
          </mxGeometry>
        </mxCell>
        <mxCell id="c-bovMz5XTutJOfnZvBF-2" value="2.1.1: t2" style="html=1;verticalAlign=bottom;endArrow=open;dashed=1;endSize=8;curved=0;rounded=0;horizontal=0;" edge="1" parent="1">
          <mxGeometry x="0.1429" y="-9" relative="1" as="geometry">
            <mxPoint x="139" y="290" as="sourcePoint" />
            <mxPoint x="139" y="360" as="targetPoint" />
            <mxPoint as="offset" />
          </mxGeometry>
        </mxCell>
        <mxCell id="c-bovMz5XTutJOfnZvBF-3" value="t2: TVSZ" style="html=1;whiteSpace=wrap;" vertex="1" parent="1">
          <mxGeometry x="460" y="480" width="110" height="50" as="geometry" />
        </mxCell>
        <mxCell id="c-bovMz5XTutJOfnZvBF-4" value="2.2: [t2 == NULL]: addTVSZ(t)" style="html=1;verticalAlign=bottom;endArrow=block;curved=0;rounded=0;horizontal=0;" edge="1" parent="1">
          <mxGeometry x="0.1429" y="9" width="80" relative="1" as="geometry">
            <mxPoint x="250" y="460" as="sourcePoint" />
            <mxPoint x="249" y="290" as="targetPoint" />
            <mxPoint as="offset" />
          </mxGeometry>
        </mxCell>
        <mxCell id="c-bovMz5XTutJOfnZvBF-5" value="" style="endArrow=none;html=1;rounded=0;" edge="1" parent="1" source="u2Yz6t_pxYuRWbe28RRW-1" target="u2Yz6t_pxYuRWbe28RRW-1">
          <mxGeometry width="50" height="50" relative="1" as="geometry">
            <mxPoint x="410" y="350" as="sourcePoint" />
            <mxPoint x="460" y="300" as="targetPoint" />
            <Array as="points">
              <mxPoint x="70" y="510" />
              <mxPoint x="70" y="590" />
              <mxPoint x="195" y="590" />
            </Array>
          </mxGeometry>
        </mxCell>
        <mxCell id="c-bovMz5XTutJOfnZvBF-6" value="2.3: [t2 != NULL]: r: getRemainingProtection()" style="html=1;verticalAlign=bottom;endArrow=block;curved=0;rounded=0;" edge="1" parent="1">
          <mxGeometry width="80" relative="1" as="geometry">
            <mxPoint x="120" y="620" as="sourcePoint" />
            <mxPoint x="200" y="620" as="targetPoint" />
          </mxGeometry>
        </mxCell>
        <mxCell id="c-bovMz5XTutJOfnZvBF-7" value="" style="endArrow=none;html=1;rounded=0;" edge="1" parent="1" source="u2Yz6t_pxYuRWbe28RRW-1" target="c-bovMz5XTutJOfnZvBF-3">
          <mxGeometry width="50" height="50" relative="1" as="geometry">
            <mxPoint x="410" y="550" as="sourcePoint" />
            <mxPoint x="460" y="500" as="targetPoint" />
          </mxGeometry>
        </mxCell>
        <mxCell id="c-bovMz5XTutJOfnZvBF-8" value="2.4: [t2 != NULL]: addProtection(r)" style="html=1;verticalAlign=bottom;endArrow=block;curved=0;rounded=0;" edge="1" parent="1">
          <mxGeometry width="80" relative="1" as="geometry">
            <mxPoint x="280" y="490" as="sourcePoint" />
            <mxPoint x="420" y="490" as="targetPoint" />
            <mxPoint as="offset" />
          </mxGeometry>
        </mxCell>
      </root>
    </mxGraphModel>
  </diagram>
  <diagram id="SD5kJnfq1gnDlH2wgD3_" name="PickUpTransistor">
    <mxGraphModel dx="880" dy="532" grid="1" gridSize="10" guides="1" tooltips="1" connect="1" arrows="1" fold="1" page="1" pageScale="1" pageWidth="827" pageHeight="1169" math="0" shadow="0">
      <root>
        <mxCell id="0" />
        <mxCell id="1" parent="0" />
        <mxCell id="NQGPSlM7XLBzm4OhXAsC-1" value="t: Transistor" style="html=1;whiteSpace=wrap;" vertex="1" parent="1">
          <mxGeometry x="140" y="330" width="110" height="50" as="geometry" />
        </mxCell>
        <mxCell id="NQGPSlM7XLBzm4OhXAsC-2" value="r: Room" style="html=1;whiteSpace=wrap;" vertex="1" parent="1">
          <mxGeometry x="460" y="120" width="110" height="50" as="geometry" />
        </mxCell>
        <mxCell id="NQGPSlM7XLBzm4OhXAsC-3" value="s: Student" style="html=1;whiteSpace=wrap;" vertex="1" parent="1">
          <mxGeometry x="140" y="120" width="110" height="50" as="geometry" />
        </mxCell>
        <mxCell id="NQGPSlM7XLBzm4OhXAsC-4" value="" style="endArrow=none;html=1;rounded=0;" edge="1" parent="1" source="NQGPSlM7XLBzm4OhXAsC-1" target="NQGPSlM7XLBzm4OhXAsC-3">
          <mxGeometry width="50" height="50" relative="1" as="geometry">
            <mxPoint x="410" y="300" as="sourcePoint" />
            <mxPoint x="460" y="250" as="targetPoint" />
          </mxGeometry>
        </mxCell>
        <mxCell id="NQGPSlM7XLBzm4OhXAsC-5" value="" style="endArrow=none;html=1;rounded=0;" edge="1" parent="1" source="NQGPSlM7XLBzm4OhXAsC-2" target="NQGPSlM7XLBzm4OhXAsC-3">
          <mxGeometry width="50" height="50" relative="1" as="geometry">
            <mxPoint x="410" y="300" as="sourcePoint" />
            <mxPoint x="460" y="250" as="targetPoint" />
          </mxGeometry>
        </mxCell>
        <mxCell id="NQGPSlM7XLBzm4OhXAsC-6" value="2: onPickedUp(s)" style="html=1;verticalAlign=bottom;endArrow=block;curved=0;rounded=0;horizontal=0;" edge="1" parent="1">
          <mxGeometry x="-0.1429" y="-9" width="80" relative="1" as="geometry">
            <mxPoint x="139" y="200" as="sourcePoint" />
            <mxPoint x="139" y="270" as="targetPoint" />
            <mxPoint as="offset" />
          </mxGeometry>
        </mxCell>
        <mxCell id="NQGPSlM7XLBzm4OhXAsC-7" value="1: removeItem(t)" style="html=1;verticalAlign=bottom;endArrow=block;curved=0;rounded=0;" edge="1" parent="1">
          <mxGeometry width="80" relative="1" as="geometry">
            <mxPoint x="270" y="119" as="sourcePoint" />
            <mxPoint x="350" y="119" as="targetPoint" />
          </mxGeometry>
        </mxCell>
        <mxCell id="NQGPSlM7XLBzm4OhXAsC-8" value="2.1: addTransistor(t)" style="html=1;verticalAlign=bottom;endArrow=block;curved=0;rounded=0;horizontal=0;" edge="1" parent="1">
          <mxGeometry x="0.1429" y="9" width="80" relative="1" as="geometry">
            <mxPoint x="249" y="270" as="sourcePoint" />
            <mxPoint x="249" y="200" as="targetPoint" />
            <mxPoint as="offset" />
          </mxGeometry>
        </mxCell>
        <mxCell id="NQGPSlM7XLBzm4OhXAsC-12" value="" style="endArrow=none;html=1;rounded=0;" edge="1" parent="1" source="NQGPSlM7XLBzm4OhXAsC-1" target="NQGPSlM7XLBzm4OhXAsC-1">
          <mxGeometry width="50" height="50" relative="1" as="geometry">
            <mxPoint x="410" y="200" as="sourcePoint" />
            <mxPoint x="460" y="150" as="targetPoint" />
            <Array as="points">
              <mxPoint x="70" y="360" />
              <mxPoint x="70" y="440" />
              <mxPoint x="195" y="440" />
            </Array>
          </mxGeometry>
        </mxCell>
        <mxCell id="NQGPSlM7XLBzm4OhXAsC-13" value="2.2: [transistorList.size % 2 == 0]: pairLastTwoTransistor()" style="html=1;verticalAlign=bottom;endArrow=block;curved=0;rounded=0;" edge="1" parent="1">
          <mxGeometry width="80" relative="1" as="geometry">
            <mxPoint x="120" y="470" as="sourcePoint" />
            <mxPoint x="200" y="470" as="targetPoint" />
          </mxGeometry>
        </mxCell>
        <mxCell id="NQGPSlM7XLBzm4OhXAsC-16" value="sd Pick Up Transistor" style="shape=umlFrame;whiteSpace=wrap;html=1;pointerEvents=0;width=140;height=30;" vertex="1" parent="1">
          <mxGeometry y="70" width="600" height="400" as="geometry" />
        </mxCell>
      </root>
    </mxGraphModel>
  </diagram>
  <diagram id="iPI5rV-sjGtf1RSN4JAz" name="PairLastTwoTransistor">
    <mxGraphModel dx="880" dy="532" grid="1" gridSize="10" guides="1" tooltips="1" connect="1" arrows="1" fold="1" page="1" pageScale="1" pageWidth="827" pageHeight="1169" math="0" shadow="0">
      <root>
        <mxCell id="0" />
        <mxCell id="1" parent="0" />
        <mxCell id="unmUJMUTRS4B0OC9LzWI-1" value="t2: Transistor" style="html=1;whiteSpace=wrap;" vertex="1" parent="1">
          <mxGeometry x="180" y="380" width="110" height="50" as="geometry" />
        </mxCell>
        <mxCell id="unmUJMUTRS4B0OC9LzWI-2" value="t1: Transistor" style="html=1;whiteSpace=wrap;" vertex="1" parent="1">
          <mxGeometry x="450" y="190" width="110" height="50" as="geometry" />
        </mxCell>
        <mxCell id="unmUJMUTRS4B0OC9LzWI-3" value="s: Student" style="html=1;whiteSpace=wrap;" vertex="1" parent="1">
          <mxGeometry x="180" y="190" width="110" height="50" as="geometry" />
        </mxCell>
        <mxCell id="unmUJMUTRS4B0OC9LzWI-4" value="" style="endArrow=none;html=1;rounded=0;" edge="1" parent="1" source="unmUJMUTRS4B0OC9LzWI-1" target="unmUJMUTRS4B0OC9LzWI-3">
          <mxGeometry width="50" height="50" relative="1" as="geometry">
            <mxPoint x="450" y="370" as="sourcePoint" />
            <mxPoint x="500" y="320" as="targetPoint" />
          </mxGeometry>
        </mxCell>
        <mxCell id="unmUJMUTRS4B0OC9LzWI-5" value="" style="endArrow=none;html=1;rounded=0;" edge="1" parent="1" source="unmUJMUTRS4B0OC9LzWI-3" target="unmUJMUTRS4B0OC9LzWI-2">
          <mxGeometry width="50" height="50" relative="1" as="geometry">
            <mxPoint x="450" y="370" as="sourcePoint" />
            <mxPoint x="500" y="320" as="targetPoint" />
          </mxGeometry>
        </mxCell>
        <mxCell id="unmUJMUTRS4B0OC9LzWI-6" value="" style="endArrow=none;html=1;rounded=0;" edge="1" parent="1" source="unmUJMUTRS4B0OC9LzWI-3" target="unmUJMUTRS4B0OC9LzWI-3">
          <mxGeometry width="50" height="50" relative="1" as="geometry">
            <mxPoint x="450" y="370" as="sourcePoint" />
            <mxPoint x="500" y="320" as="targetPoint" />
            <Array as="points">
              <mxPoint x="230" y="160" />
              <mxPoint x="130" y="160" />
              <mxPoint x="130" y="210" />
            </Array>
          </mxGeometry>
        </mxCell>
        <mxCell id="unmUJMUTRS4B0OC9LzWI-7" value="3: pairing(t2)" style="html=1;verticalAlign=bottom;endArrow=block;curved=0;rounded=0;" edge="1" parent="1">
          <mxGeometry width="80" relative="1" as="geometry">
            <mxPoint x="330" y="190" as="sourcePoint" />
            <mxPoint x="410" y="190" as="targetPoint" />
          </mxGeometry>
        </mxCell>
        <mxCell id="unmUJMUTRS4B0OC9LzWI-8" value="1: t1: getTransistor(transistorList.size - 1)" style="html=1;verticalAlign=bottom;endArrow=block;curved=0;rounded=0;" edge="1" parent="1">
          <mxGeometry width="80" relative="1" as="geometry">
            <mxPoint x="140" y="150" as="sourcePoint" />
            <mxPoint x="220" y="150" as="targetPoint" />
          </mxGeometry>
        </mxCell>
        <mxCell id="umd6FTJ21lRyKGs4KKPT-1" value="2: t2: getTransistor(transistorList.size - 2)" style="html=1;verticalAlign=bottom;endArrow=block;curved=0;rounded=0;" edge="1" parent="1">
          <mxGeometry width="80" relative="1" as="geometry">
            <mxPoint x="160" y="130" as="sourcePoint" />
            <mxPoint x="240" y="130" as="targetPoint" />
          </mxGeometry>
        </mxCell>
        <mxCell id="umd6FTJ21lRyKGs4KKPT-2" value="4: pairing(t1)" style="html=1;verticalAlign=bottom;endArrow=block;curved=0;rounded=0;horizontal=0;" edge="1" parent="1">
          <mxGeometry y="-10" width="80" relative="1" as="geometry">
            <mxPoint x="200" y="260" as="sourcePoint" />
            <mxPoint x="200" y="320" as="targetPoint" />
            <mxPoint as="offset" />
          </mxGeometry>
        </mxCell>
        <mxCell id="umd6FTJ21lRyKGs4KKPT-3" value="sd Pair Last Two Transistor" style="shape=umlFrame;whiteSpace=wrap;html=1;pointerEvents=0;width=180;height=30;" vertex="1" parent="1">
          <mxGeometry x="40" y="80" width="610" height="390" as="geometry" />
        </mxCell>
      </root>
    </mxGraphModel>
  </diagram>
  <diagram id="CZea5wYm5OdD90MSl2W3" name="PickUpCamambert">
    <mxGraphModel dx="880" dy="532" grid="1" gridSize="10" guides="1" tooltips="1" connect="1" arrows="1" fold="1" page="1" pageScale="1" pageWidth="827" pageHeight="1169" math="0" shadow="0">
      <root>
        <mxCell id="0" />
        <mxCell id="1" parent="0" />
        <mxCell id="_Y5PcIzRywx4gKG_cZ2p-1" value="c: Camambert" style="html=1;whiteSpace=wrap;" vertex="1" parent="1">
          <mxGeometry x="120" y="320" width="110" height="50" as="geometry" />
        </mxCell>
        <mxCell id="_Y5PcIzRywx4gKG_cZ2p-2" value="r: Room" style="html=1;whiteSpace=wrap;" vertex="1" parent="1">
          <mxGeometry x="440" y="120" width="110" height="50" as="geometry" />
        </mxCell>
        <mxCell id="_Y5PcIzRywx4gKG_cZ2p-3" value="s: Student" style="html=1;whiteSpace=wrap;" vertex="1" parent="1">
          <mxGeometry x="120" y="120" width="110" height="50" as="geometry" />
        </mxCell>
        <mxCell id="_Y5PcIzRywx4gKG_cZ2p-4" value="" style="endArrow=none;html=1;rounded=0;" edge="1" parent="1" source="_Y5PcIzRywx4gKG_cZ2p-1" target="_Y5PcIzRywx4gKG_cZ2p-3">
          <mxGeometry width="50" height="50" relative="1" as="geometry">
            <mxPoint x="390" y="300" as="sourcePoint" />
            <mxPoint x="440" y="250" as="targetPoint" />
          </mxGeometry>
        </mxCell>
        <mxCell id="_Y5PcIzRywx4gKG_cZ2p-5" value="" style="endArrow=none;html=1;rounded=0;" edge="1" parent="1" source="_Y5PcIzRywx4gKG_cZ2p-2" target="_Y5PcIzRywx4gKG_cZ2p-3">
          <mxGeometry width="50" height="50" relative="1" as="geometry">
            <mxPoint x="390" y="300" as="sourcePoint" />
            <mxPoint x="440" y="250" as="targetPoint" />
          </mxGeometry>
        </mxCell>
        <mxCell id="_Y5PcIzRywx4gKG_cZ2p-6" value="2: onPickedUp(s)" style="html=1;verticalAlign=bottom;endArrow=block;curved=0;rounded=0;horizontal=0;" edge="1" parent="1">
          <mxGeometry x="-0.1429" y="-9" width="80" relative="1" as="geometry">
            <mxPoint x="119" y="200" as="sourcePoint" />
            <mxPoint x="119" y="270" as="targetPoint" />
            <mxPoint as="offset" />
          </mxGeometry>
        </mxCell>
        <mxCell id="_Y5PcIzRywx4gKG_cZ2p-7" value="1: removeItem(c)" style="html=1;verticalAlign=bottom;endArrow=block;curved=0;rounded=0;" edge="1" parent="1">
          <mxGeometry width="80" relative="1" as="geometry">
            <mxPoint x="250" y="119" as="sourcePoint" />
            <mxPoint x="330" y="119" as="targetPoint" />
          </mxGeometry>
        </mxCell>
        <mxCell id="_Y5PcIzRywx4gKG_cZ2p-8" value="sd Pick Up Camambert" style="shape=umlFrame;whiteSpace=wrap;html=1;pointerEvents=0;width=140;height=30;" vertex="1" parent="1">
          <mxGeometry x="40" y="60" width="530" height="340" as="geometry" />
        </mxCell>
      </root>
    </mxGraphModel>
  </diagram>
  <diagram id="FQO84-Wv61v_6SE6GKhz" name="PickupGlassOfBeer">
    <mxGraphModel dx="880" dy="532" grid="1" gridSize="10" guides="1" tooltips="1" connect="1" arrows="1" fold="1" page="1" pageScale="1" pageWidth="827" pageHeight="1169" math="0" shadow="0">
      <root>
        <mxCell id="0" />
        <mxCell id="1" parent="0" />
        <mxCell id="xEp-X3ysMSUqVmor1Ivv-1" value="g: GlassOfBeer" style="html=1;whiteSpace=wrap;" vertex="1" parent="1">
          <mxGeometry x="120" y="320" width="110" height="50" as="geometry" />
        </mxCell>
        <mxCell id="xEp-X3ysMSUqVmor1Ivv-2" value="r: Room" style="html=1;whiteSpace=wrap;" vertex="1" parent="1">
          <mxGeometry x="440" y="120" width="110" height="50" as="geometry" />
        </mxCell>
        <mxCell id="xEp-X3ysMSUqVmor1Ivv-3" value="s: Student" style="html=1;whiteSpace=wrap;" vertex="1" parent="1">
          <mxGeometry x="120" y="120" width="110" height="50" as="geometry" />
        </mxCell>
        <mxCell id="xEp-X3ysMSUqVmor1Ivv-4" value="" style="endArrow=none;html=1;rounded=0;" edge="1" parent="1" source="xEp-X3ysMSUqVmor1Ivv-1" target="xEp-X3ysMSUqVmor1Ivv-3">
          <mxGeometry width="50" height="50" relative="1" as="geometry">
            <mxPoint x="390" y="300" as="sourcePoint" />
            <mxPoint x="440" y="250" as="targetPoint" />
          </mxGeometry>
        </mxCell>
        <mxCell id="xEp-X3ysMSUqVmor1Ivv-5" value="" style="endArrow=none;html=1;rounded=0;" edge="1" parent="1" source="xEp-X3ysMSUqVmor1Ivv-2" target="xEp-X3ysMSUqVmor1Ivv-3">
          <mxGeometry width="50" height="50" relative="1" as="geometry">
            <mxPoint x="390" y="300" as="sourcePoint" />
            <mxPoint x="440" y="250" as="targetPoint" />
          </mxGeometry>
        </mxCell>
        <mxCell id="xEp-X3ysMSUqVmor1Ivv-6" value="2: onPickedUp(s)" style="html=1;verticalAlign=bottom;endArrow=block;curved=0;rounded=0;horizontal=0;" edge="1" parent="1">
          <mxGeometry x="-0.1429" y="-9" width="80" relative="1" as="geometry">
            <mxPoint x="119" y="200" as="sourcePoint" />
            <mxPoint x="119" y="270" as="targetPoint" />
            <mxPoint as="offset" />
          </mxGeometry>
        </mxCell>
        <mxCell id="xEp-X3ysMSUqVmor1Ivv-7" value="1: removeItem(g)" style="html=1;verticalAlign=bottom;endArrow=block;curved=0;rounded=0;" edge="1" parent="1">
          <mxGeometry width="80" relative="1" as="geometry">
            <mxPoint x="250" y="119" as="sourcePoint" />
            <mxPoint x="330" y="119" as="targetPoint" />
          </mxGeometry>
        </mxCell>
        <mxCell id="xEp-X3ysMSUqVmor1Ivv-8" value="sd Pick Up Glass Of Beer" style="shape=umlFrame;whiteSpace=wrap;html=1;pointerEvents=0;width=160;height=30;" vertex="1" parent="1">
          <mxGeometry x="40" y="60" width="530" height="340" as="geometry" />
        </mxCell>
      </root>
    </mxGraphModel>
  </diagram>
  <diagram id="T6oTjXRPjkZlMye7V7nf" name="PickUpWetRag">
    <mxGraphModel dx="880" dy="532" grid="1" gridSize="10" guides="1" tooltips="1" connect="1" arrows="1" fold="1" page="1" pageScale="1" pageWidth="827" pageHeight="1169" math="0" shadow="0">
      <root>
        <mxCell id="0" />
        <mxCell id="1" parent="0" />
        <mxCell id="RRekl1B13tAGqxxGRzPP-1" value="w: WetRag" style="html=1;whiteSpace=wrap;" vertex="1" parent="1">
          <mxGeometry x="120" y="320" width="110" height="50" as="geometry" />
        </mxCell>
        <mxCell id="RRekl1B13tAGqxxGRzPP-2" value="r: Room" style="html=1;whiteSpace=wrap;" vertex="1" parent="1">
          <mxGeometry x="440" y="120" width="110" height="50" as="geometry" />
        </mxCell>
        <mxCell id="RRekl1B13tAGqxxGRzPP-3" value="s: Student" style="html=1;whiteSpace=wrap;" vertex="1" parent="1">
          <mxGeometry x="120" y="120" width="110" height="50" as="geometry" />
        </mxCell>
        <mxCell id="RRekl1B13tAGqxxGRzPP-4" value="" style="endArrow=none;html=1;rounded=0;" edge="1" parent="1" source="RRekl1B13tAGqxxGRzPP-1" target="RRekl1B13tAGqxxGRzPP-3">
          <mxGeometry width="50" height="50" relative="1" as="geometry">
            <mxPoint x="390" y="300" as="sourcePoint" />
            <mxPoint x="440" y="250" as="targetPoint" />
          </mxGeometry>
        </mxCell>
        <mxCell id="RRekl1B13tAGqxxGRzPP-5" value="" style="endArrow=none;html=1;rounded=0;" edge="1" parent="1" source="RRekl1B13tAGqxxGRzPP-2" target="RRekl1B13tAGqxxGRzPP-3">
          <mxGeometry width="50" height="50" relative="1" as="geometry">
            <mxPoint x="390" y="300" as="sourcePoint" />
            <mxPoint x="440" y="250" as="targetPoint" />
          </mxGeometry>
        </mxCell>
        <mxCell id="RRekl1B13tAGqxxGRzPP-6" value="2: onPickedUp(s)" style="html=1;verticalAlign=bottom;endArrow=block;curved=0;rounded=0;horizontal=0;" edge="1" parent="1">
          <mxGeometry x="-0.1429" y="-9" width="80" relative="1" as="geometry">
            <mxPoint x="119" y="200" as="sourcePoint" />
            <mxPoint x="119" y="270" as="targetPoint" />
            <mxPoint as="offset" />
          </mxGeometry>
        </mxCell>
        <mxCell id="RRekl1B13tAGqxxGRzPP-7" value="1: removeItem(w)" style="html=1;verticalAlign=bottom;endArrow=block;curved=0;rounded=0;" edge="1" parent="1">
          <mxGeometry width="80" relative="1" as="geometry">
            <mxPoint x="250" y="119" as="sourcePoint" />
            <mxPoint x="330" y="119" as="targetPoint" />
          </mxGeometry>
        </mxCell>
        <mxCell id="RRekl1B13tAGqxxGRzPP-8" value="sd Pick Up Wet Rag" style="shape=umlFrame;whiteSpace=wrap;html=1;pointerEvents=0;width=110;height=30;" vertex="1" parent="1">
          <mxGeometry x="40" y="60" width="530" height="340" as="geometry" />
        </mxCell>
      </root>
    </mxGraphModel>
  </diagram>
  <diagram id="x81Rd21AtoyPljoyDas3" name="PickUpSideRule">
    <mxGraphModel dx="880" dy="532" grid="1" gridSize="10" guides="1" tooltips="1" connect="1" arrows="1" fold="1" page="1" pageScale="1" pageWidth="827" pageHeight="1169" math="0" shadow="0">
      <root>
        <mxCell id="0" />
        <mxCell id="1" parent="0" />
        <mxCell id="wQ9W4SAe_n-iDaJs0lHW-1" value="s: SlideRule" style="html=1;whiteSpace=wrap;" vertex="1" parent="1">
          <mxGeometry x="120" y="320" width="110" height="50" as="geometry" />
        </mxCell>
        <mxCell id="wQ9W4SAe_n-iDaJs0lHW-2" value="r: Room" style="html=1;whiteSpace=wrap;" vertex="1" parent="1">
          <mxGeometry x="440" y="120" width="110" height="50" as="geometry" />
        </mxCell>
        <mxCell id="wQ9W4SAe_n-iDaJs0lHW-3" value="s: Student" style="html=1;whiteSpace=wrap;" vertex="1" parent="1">
          <mxGeometry x="120" y="120" width="110" height="50" as="geometry" />
        </mxCell>
        <mxCell id="wQ9W4SAe_n-iDaJs0lHW-4" value="" style="endArrow=none;html=1;rounded=0;" edge="1" parent="1" source="wQ9W4SAe_n-iDaJs0lHW-1" target="wQ9W4SAe_n-iDaJs0lHW-3">
          <mxGeometry width="50" height="50" relative="1" as="geometry">
            <mxPoint x="390" y="300" as="sourcePoint" />
            <mxPoint x="440" y="250" as="targetPoint" />
          </mxGeometry>
        </mxCell>
        <mxCell id="wQ9W4SAe_n-iDaJs0lHW-5" value="" style="endArrow=none;html=1;rounded=0;" edge="1" parent="1" source="wQ9W4SAe_n-iDaJs0lHW-2" target="wQ9W4SAe_n-iDaJs0lHW-3">
          <mxGeometry width="50" height="50" relative="1" as="geometry">
            <mxPoint x="390" y="300" as="sourcePoint" />
            <mxPoint x="440" y="250" as="targetPoint" />
          </mxGeometry>
        </mxCell>
        <mxCell id="wQ9W4SAe_n-iDaJs0lHW-6" value="2: onPickedUp(s)" style="html=1;verticalAlign=bottom;endArrow=block;curved=0;rounded=0;horizontal=0;" edge="1" parent="1">
          <mxGeometry x="-0.1429" y="-9" width="80" relative="1" as="geometry">
            <mxPoint x="119" y="200" as="sourcePoint" />
            <mxPoint x="119" y="270" as="targetPoint" />
            <mxPoint as="offset" />
          </mxGeometry>
        </mxCell>
        <mxCell id="wQ9W4SAe_n-iDaJs0lHW-7" value="1: removeItem(f)" style="html=1;verticalAlign=bottom;endArrow=block;curved=0;rounded=0;" edge="1" parent="1">
          <mxGeometry width="80" relative="1" as="geometry">
            <mxPoint x="250" y="119" as="sourcePoint" />
            <mxPoint x="330" y="119" as="targetPoint" />
          </mxGeometry>
        </mxCell>
        <mxCell id="wQ9W4SAe_n-iDaJs0lHW-8" value="sd Pick Up Slide Rule" style="shape=umlFrame;whiteSpace=wrap;html=1;pointerEvents=0;width=140;height=30;" vertex="1" parent="1">
          <mxGeometry x="40" y="60" width="630" height="410" as="geometry" />
        </mxCell>
        <mxCell id="wQ9W4SAe_n-iDaJs0lHW-9" value="gc: GameController" style="html=1;whiteSpace=wrap;" vertex="1" parent="1">
          <mxGeometry x="440" y="320" width="110" height="50" as="geometry" />
        </mxCell>
        <mxCell id="wQ9W4SAe_n-iDaJs0lHW-11" value="" style="endArrow=none;html=1;rounded=0;" edge="1" parent="1" source="wQ9W4SAe_n-iDaJs0lHW-1" target="wQ9W4SAe_n-iDaJs0lHW-9">
          <mxGeometry width="50" height="50" relative="1" as="geometry">
            <mxPoint x="390" y="300" as="sourcePoint" />
            <mxPoint x="440" y="250" as="targetPoint" />
          </mxGeometry>
        </mxCell>
        <mxCell id="wQ9W4SAe_n-iDaJs0lHW-12" value="2.1: slideRulePickedUp()" style="html=1;verticalAlign=bottom;endArrow=block;curved=0;rounded=0;" edge="1" parent="1">
          <mxGeometry width="80" relative="1" as="geometry">
            <mxPoint x="275" y="320" as="sourcePoint" />
            <mxPoint x="390" y="320" as="targetPoint" />
          </mxGeometry>
        </mxCell>
        <mxCell id="wQ9W4SAe_n-iDaJs0lHW-13" value="" style="endArrow=none;html=1;rounded=0;" edge="1" parent="1" source="wQ9W4SAe_n-iDaJs0lHW-9" target="wQ9W4SAe_n-iDaJs0lHW-9">
          <mxGeometry width="50" height="50" relative="1" as="geometry">
            <mxPoint x="390" y="320" as="sourcePoint" />
            <mxPoint x="440" y="270" as="targetPoint" />
            <Array as="points">
              <mxPoint x="495" y="410" />
              <mxPoint x="600" y="410" />
              <mxPoint x="600" y="345" />
            </Array>
          </mxGeometry>
        </mxCell>
        <mxCell id="wQ9W4SAe_n-iDaJs0lHW-14" value="2.1.1: endGame()" style="html=1;verticalAlign=bottom;endArrow=block;curved=0;rounded=0;" edge="1" parent="1">
          <mxGeometry width="80" relative="1" as="geometry">
            <mxPoint x="510" y="430" as="sourcePoint" />
            <mxPoint x="590" y="430" as="targetPoint" />
          </mxGeometry>
        </mxCell>
      </root>
    </mxGraphModel>
  </diagram>
  <diagram id="ym08gRsysJgtbgJ7alIw" name="DropDice">
    <mxGraphModel dx="880" dy="532" grid="1" gridSize="10" guides="1" tooltips="1" connect="1" arrows="1" fold="1" page="1" pageScale="1" pageWidth="827" pageHeight="1169" math="0" shadow="0">
      <root>
        <mxCell id="0" />
        <mxCell id="1" parent="0" />
        <mxCell id="IgsKC2OKllSIDf1JvvCw-1" value="d: Dice" style="html=1;whiteSpace=wrap;" vertex="1" parent="1">
          <mxGeometry x="120" y="240" width="110" height="50" as="geometry" />
        </mxCell>
        <mxCell id="IgsKC2OKllSIDf1JvvCw-2" value="r: Room" style="html=1;whiteSpace=wrap;" vertex="1" parent="1">
          <mxGeometry x="360" y="120" width="110" height="50" as="geometry" />
        </mxCell>
        <mxCell id="IgsKC2OKllSIDf1JvvCw-3" value="s: Student" style="html=1;whiteSpace=wrap;" vertex="1" parent="1">
          <mxGeometry x="120" y="120" width="110" height="50" as="geometry" />
        </mxCell>
        <mxCell id="IgsKC2OKllSIDf1JvvCw-4" value="" style="endArrow=none;html=1;rounded=0;" edge="1" parent="1" source="IgsKC2OKllSIDf1JvvCw-3" target="IgsKC2OKllSIDf1JvvCw-2">
          <mxGeometry width="50" height="50" relative="1" as="geometry">
            <mxPoint x="390" y="300" as="sourcePoint" />
            <mxPoint x="440" y="250" as="targetPoint" />
          </mxGeometry>
        </mxCell>
        <mxCell id="IgsKC2OKllSIDf1JvvCw-5" value="1: addItem(d)" style="html=1;verticalAlign=bottom;endArrow=block;curved=0;rounded=0;" edge="1" parent="1">
          <mxGeometry width="80" relative="1" as="geometry">
            <mxPoint x="260" y="119" as="sourcePoint" />
            <mxPoint x="340" y="119" as="targetPoint" />
          </mxGeometry>
        </mxCell>
        <mxCell id="IgsKC2OKllSIDf1JvvCw-6" value="sd Drop Dice" style="shape=umlFrame;whiteSpace=wrap;html=1;pointerEvents=0;width=110;height=30;" vertex="1" parent="1">
          <mxGeometry x="60" y="70" width="480" height="260" as="geometry" />
        </mxCell>
      </root>
    </mxGraphModel>
  </diagram>
  <diagram id="k9PMCfqVECfBEnk1V3JS" name="DropFFP2">
    <mxGraphModel dx="880" dy="532" grid="1" gridSize="10" guides="1" tooltips="1" connect="1" arrows="1" fold="1" page="1" pageScale="1" pageWidth="827" pageHeight="1169" math="0" shadow="0">
      <root>
        <mxCell id="0" />
        <mxCell id="1" parent="0" />
        <mxCell id="X__lixIiOyFJ3nrnba4H-1" value="f: FFP2" style="html=1;whiteSpace=wrap;" vertex="1" parent="1">
          <mxGeometry x="120" y="240" width="110" height="50" as="geometry" />
        </mxCell>
        <mxCell id="X__lixIiOyFJ3nrnba4H-2" value="r: Room" style="html=1;whiteSpace=wrap;" vertex="1" parent="1">
          <mxGeometry x="360" y="120" width="110" height="50" as="geometry" />
        </mxCell>
        <mxCell id="X__lixIiOyFJ3nrnba4H-3" value="s: Student" style="html=1;whiteSpace=wrap;" vertex="1" parent="1">
          <mxGeometry x="120" y="120" width="110" height="50" as="geometry" />
        </mxCell>
        <mxCell id="X__lixIiOyFJ3nrnba4H-4" value="" style="endArrow=none;html=1;rounded=0;" edge="1" parent="1" source="X__lixIiOyFJ3nrnba4H-3" target="X__lixIiOyFJ3nrnba4H-2">
          <mxGeometry width="50" height="50" relative="1" as="geometry">
            <mxPoint x="390" y="300" as="sourcePoint" />
            <mxPoint x="440" y="250" as="targetPoint" />
          </mxGeometry>
        </mxCell>
        <mxCell id="X__lixIiOyFJ3nrnba4H-5" value="1: addItem(f)" style="html=1;verticalAlign=bottom;endArrow=block;curved=0;rounded=0;" edge="1" parent="1">
          <mxGeometry width="80" relative="1" as="geometry">
            <mxPoint x="260" y="119" as="sourcePoint" />
            <mxPoint x="340" y="119" as="targetPoint" />
          </mxGeometry>
        </mxCell>
        <mxCell id="X__lixIiOyFJ3nrnba4H-6" value="sd Drop FFP2" style="shape=umlFrame;whiteSpace=wrap;html=1;pointerEvents=0;width=110;height=30;" vertex="1" parent="1">
          <mxGeometry x="60" y="70" width="480" height="260" as="geometry" />
        </mxCell>
      </root>
    </mxGraphModel>
  </diagram>
  <diagram id="mrRHdwEa6Da7rYMUGxSw" name="DropTVSZ">
    <mxGraphModel dx="880" dy="532" grid="1" gridSize="10" guides="1" tooltips="1" connect="1" arrows="1" fold="1" page="1" pageScale="1" pageWidth="827" pageHeight="1169" math="0" shadow="0">
      <root>
        <mxCell id="0" />
        <mxCell id="1" parent="0" />
        <mxCell id="dbQboZQ3ceukzu2Jimjv-1" value="t: TVSZ" style="html=1;whiteSpace=wrap;" vertex="1" parent="1">
          <mxGeometry x="120" y="240" width="110" height="50" as="geometry" />
        </mxCell>
        <mxCell id="dbQboZQ3ceukzu2Jimjv-2" value="r: Room" style="html=1;whiteSpace=wrap;" vertex="1" parent="1">
          <mxGeometry x="360" y="120" width="110" height="50" as="geometry" />
        </mxCell>
        <mxCell id="dbQboZQ3ceukzu2Jimjv-3" value="s: Student" style="html=1;whiteSpace=wrap;" vertex="1" parent="1">
          <mxGeometry x="120" y="120" width="110" height="50" as="geometry" />
        </mxCell>
        <mxCell id="dbQboZQ3ceukzu2Jimjv-4" value="" style="endArrow=none;html=1;rounded=0;" edge="1" parent="1" source="dbQboZQ3ceukzu2Jimjv-3" target="dbQboZQ3ceukzu2Jimjv-2">
          <mxGeometry width="50" height="50" relative="1" as="geometry">
            <mxPoint x="390" y="300" as="sourcePoint" />
            <mxPoint x="440" y="250" as="targetPoint" />
          </mxGeometry>
        </mxCell>
        <mxCell id="dbQboZQ3ceukzu2Jimjv-5" value="1: addItem(t)" style="html=1;verticalAlign=bottom;endArrow=block;curved=0;rounded=0;" edge="1" parent="1">
          <mxGeometry width="80" relative="1" as="geometry">
            <mxPoint x="260" y="119" as="sourcePoint" />
            <mxPoint x="340" y="119" as="targetPoint" />
          </mxGeometry>
        </mxCell>
        <mxCell id="dbQboZQ3ceukzu2Jimjv-6" value="sd Drop TVSZ" style="shape=umlFrame;whiteSpace=wrap;html=1;pointerEvents=0;width=110;height=30;" vertex="1" parent="1">
          <mxGeometry x="60" y="70" width="480" height="260" as="geometry" />
        </mxCell>
      </root>
    </mxGraphModel>
  </diagram>
  <diagram id="9FnCR34sSBQCoEmBsPiS" name="DropTransistor">
    <mxGraphModel dx="880" dy="532" grid="1" gridSize="10" guides="1" tooltips="1" connect="1" arrows="1" fold="1" page="1" pageScale="1" pageWidth="827" pageHeight="1169" math="0" shadow="0">
      <root>
        <mxCell id="0" />
        <mxCell id="1" parent="0" />
        <mxCell id="xzWNlSEnjZZcz0_QKhsN-1" value="t: Transistor" style="html=1;whiteSpace=wrap;" vertex="1" parent="1">
          <mxGeometry x="120" y="240" width="110" height="50" as="geometry" />
        </mxCell>
        <mxCell id="xzWNlSEnjZZcz0_QKhsN-2" value="r: Room" style="html=1;whiteSpace=wrap;" vertex="1" parent="1">
          <mxGeometry x="360" y="120" width="110" height="50" as="geometry" />
        </mxCell>
        <mxCell id="xzWNlSEnjZZcz0_QKhsN-3" value="s: Student" style="html=1;whiteSpace=wrap;" vertex="1" parent="1">
          <mxGeometry x="120" y="120" width="110" height="50" as="geometry" />
        </mxCell>
        <mxCell id="xzWNlSEnjZZcz0_QKhsN-4" value="" style="endArrow=none;html=1;rounded=0;" edge="1" parent="1" source="xzWNlSEnjZZcz0_QKhsN-3" target="xzWNlSEnjZZcz0_QKhsN-2">
          <mxGeometry width="50" height="50" relative="1" as="geometry">
            <mxPoint x="390" y="300" as="sourcePoint" />
            <mxPoint x="440" y="250" as="targetPoint" />
          </mxGeometry>
        </mxCell>
        <mxCell id="xzWNlSEnjZZcz0_QKhsN-5" value="1: addItem(t)" style="html=1;verticalAlign=bottom;endArrow=block;curved=0;rounded=0;" edge="1" parent="1">
          <mxGeometry width="80" relative="1" as="geometry">
            <mxPoint x="260" y="119" as="sourcePoint" />
            <mxPoint x="340" y="119" as="targetPoint" />
          </mxGeometry>
        </mxCell>
        <mxCell id="xzWNlSEnjZZcz0_QKhsN-6" value="sd Drop Transistor" style="shape=umlFrame;whiteSpace=wrap;html=1;pointerEvents=0;width=110;height=30;" vertex="1" parent="1">
          <mxGeometry x="60" y="70" width="480" height="260" as="geometry" />
        </mxCell>
      </root>
    </mxGraphModel>
  </diagram>
  <diagram id="aTQHcMv7Dk_mp_m3ZB9Y" name="DropWetRag">
    <mxGraphModel dx="880" dy="532" grid="1" gridSize="10" guides="1" tooltips="1" connect="1" arrows="1" fold="1" page="1" pageScale="1" pageWidth="827" pageHeight="1169" math="0" shadow="0">
      <root>
        <mxCell id="0" />
        <mxCell id="1" parent="0" />
        <mxCell id="7mY7bdI77TL0KAcAC3ZK-1" value="w: WetRag" style="html=1;whiteSpace=wrap;" vertex="1" parent="1">
          <mxGeometry x="120" y="240" width="110" height="50" as="geometry" />
        </mxCell>
        <mxCell id="7mY7bdI77TL0KAcAC3ZK-2" value="r: Room" style="html=1;whiteSpace=wrap;" vertex="1" parent="1">
          <mxGeometry x="360" y="120" width="110" height="50" as="geometry" />
        </mxCell>
        <mxCell id="7mY7bdI77TL0KAcAC3ZK-3" value="s: Student" style="html=1;whiteSpace=wrap;" vertex="1" parent="1">
          <mxGeometry x="120" y="120" width="110" height="50" as="geometry" />
        </mxCell>
        <mxCell id="7mY7bdI77TL0KAcAC3ZK-4" value="" style="endArrow=none;html=1;rounded=0;" edge="1" parent="1" source="7mY7bdI77TL0KAcAC3ZK-3" target="7mY7bdI77TL0KAcAC3ZK-2">
          <mxGeometry width="50" height="50" relative="1" as="geometry">
            <mxPoint x="390" y="300" as="sourcePoint" />
            <mxPoint x="440" y="250" as="targetPoint" />
          </mxGeometry>
        </mxCell>
        <mxCell id="7mY7bdI77TL0KAcAC3ZK-5" value="1: addItem(w)" style="html=1;verticalAlign=bottom;endArrow=block;curved=0;rounded=0;" edge="1" parent="1">
          <mxGeometry width="80" relative="1" as="geometry">
            <mxPoint x="260" y="119" as="sourcePoint" />
            <mxPoint x="340" y="119" as="targetPoint" />
          </mxGeometry>
        </mxCell>
        <mxCell id="7mY7bdI77TL0KAcAC3ZK-6" value="sd Drop Wet Rag" style="shape=umlFrame;whiteSpace=wrap;html=1;pointerEvents=0;width=110;height=30;" vertex="1" parent="1">
          <mxGeometry x="60" y="70" width="480" height="260" as="geometry" />
        </mxCell>
      </root>
    </mxGraphModel>
  </diagram>
  <diagram id="i6MDAEy2oL_HiYTTUMQd" name="DropCamambert">
    <mxGraphModel dx="880" dy="532" grid="1" gridSize="10" guides="1" tooltips="1" connect="1" arrows="1" fold="1" page="1" pageScale="1" pageWidth="827" pageHeight="1169" math="0" shadow="0">
      <root>
        <mxCell id="0" />
        <mxCell id="1" parent="0" />
        <mxCell id="PnKfuvMxwwfHGS-u7EO_-1" value="c: Camambert" style="html=1;whiteSpace=wrap;" vertex="1" parent="1">
          <mxGeometry x="120" y="240" width="110" height="50" as="geometry" />
        </mxCell>
        <mxCell id="PnKfuvMxwwfHGS-u7EO_-2" value="r: Room" style="html=1;whiteSpace=wrap;" vertex="1" parent="1">
          <mxGeometry x="360" y="120" width="110" height="50" as="geometry" />
        </mxCell>
        <mxCell id="PnKfuvMxwwfHGS-u7EO_-3" value="s: Student" style="html=1;whiteSpace=wrap;" vertex="1" parent="1">
          <mxGeometry x="120" y="120" width="110" height="50" as="geometry" />
        </mxCell>
        <mxCell id="PnKfuvMxwwfHGS-u7EO_-4" value="" style="endArrow=none;html=1;rounded=0;" edge="1" parent="1" source="PnKfuvMxwwfHGS-u7EO_-3" target="PnKfuvMxwwfHGS-u7EO_-2">
          <mxGeometry width="50" height="50" relative="1" as="geometry">
            <mxPoint x="390" y="300" as="sourcePoint" />
            <mxPoint x="440" y="250" as="targetPoint" />
          </mxGeometry>
        </mxCell>
        <mxCell id="PnKfuvMxwwfHGS-u7EO_-5" value="1: addItem(c)" style="html=1;verticalAlign=bottom;endArrow=block;curved=0;rounded=0;" edge="1" parent="1">
          <mxGeometry width="80" relative="1" as="geometry">
            <mxPoint x="260" y="119" as="sourcePoint" />
            <mxPoint x="340" y="119" as="targetPoint" />
          </mxGeometry>
        </mxCell>
        <mxCell id="PnKfuvMxwwfHGS-u7EO_-6" value="sd Drop Camambert" style="shape=umlFrame;whiteSpace=wrap;html=1;pointerEvents=0;width=120;height=30;" vertex="1" parent="1">
          <mxGeometry x="60" y="70" width="480" height="260" as="geometry" />
        </mxCell>
      </root>
    </mxGraphModel>
  </diagram>
  <diagram id="Bk3-Fta3cxbGnDjplU_I" name="DropGlassOfBeer">
    <mxGraphModel dx="880" dy="532" grid="1" gridSize="10" guides="1" tooltips="1" connect="1" arrows="1" fold="1" page="1" pageScale="1" pageWidth="827" pageHeight="1169" math="0" shadow="0">
      <root>
        <mxCell id="0" />
        <mxCell id="1" parent="0" />
        <mxCell id="6FIOB59t8i73JnDnuz7--1" value="g: GlassOfBeer" style="html=1;whiteSpace=wrap;" vertex="1" parent="1">
          <mxGeometry x="120" y="240" width="110" height="50" as="geometry" />
        </mxCell>
        <mxCell id="6FIOB59t8i73JnDnuz7--2" value="r: Room" style="html=1;whiteSpace=wrap;" vertex="1" parent="1">
          <mxGeometry x="360" y="120" width="110" height="50" as="geometry" />
        </mxCell>
        <mxCell id="6FIOB59t8i73JnDnuz7--3" value="s: Student" style="html=1;whiteSpace=wrap;" vertex="1" parent="1">
          <mxGeometry x="120" y="120" width="110" height="50" as="geometry" />
        </mxCell>
        <mxCell id="6FIOB59t8i73JnDnuz7--4" value="" style="endArrow=none;html=1;rounded=0;" edge="1" parent="1" source="6FIOB59t8i73JnDnuz7--3" target="6FIOB59t8i73JnDnuz7--2">
          <mxGeometry width="50" height="50" relative="1" as="geometry">
            <mxPoint x="390" y="300" as="sourcePoint" />
            <mxPoint x="440" y="250" as="targetPoint" />
          </mxGeometry>
        </mxCell>
        <mxCell id="6FIOB59t8i73JnDnuz7--5" value="1: addItem(g)" style="html=1;verticalAlign=bottom;endArrow=block;curved=0;rounded=0;" edge="1" parent="1">
          <mxGeometry width="80" relative="1" as="geometry">
            <mxPoint x="260" y="119" as="sourcePoint" />
            <mxPoint x="340" y="119" as="targetPoint" />
          </mxGeometry>
        </mxCell>
        <mxCell id="6FIOB59t8i73JnDnuz7--6" value="sd Drop Glass Of Beer" style="shape=umlFrame;whiteSpace=wrap;html=1;pointerEvents=0;width=140;height=30;" vertex="1" parent="1">
          <mxGeometry x="60" y="70" width="480" height="260" as="geometry" />
        </mxCell>
      </root>
    </mxGraphModel>
  </diagram>
  <diagram id="rSB6GIxkekb6COWoTvno" name="SplitRoom">
    <mxGraphModel dx="880" dy="532" grid="1" gridSize="10" guides="1" tooltips="1" connect="1" arrows="1" fold="1" page="1" pageScale="1" pageWidth="827" pageHeight="1169" math="0" shadow="0">
      <root>
        <mxCell id="0" />
        <mxCell id="1" parent="0" />
        <mxCell id="rPzKSC1QPYH1iVcqIHId-1" value="r2: Room" style="html=1;whiteSpace=wrap;" vertex="1" parent="1">
          <mxGeometry x="120" y="360" width="110" height="50" as="geometry" />
        </mxCell>
        <mxCell id="rPzKSC1QPYH1iVcqIHId-2" value="r1: Room" style="html=1;whiteSpace=wrap;" vertex="1" parent="1">
          <mxGeometry x="400" y="80" width="110" height="50" as="geometry" />
        </mxCell>
        <mxCell id="rPzKSC1QPYH1iVcqIHId-3" value="gc: GameController" style="html=1;whiteSpace=wrap;" vertex="1" parent="1">
          <mxGeometry x="120" y="80" width="110" height="50" as="geometry" />
        </mxCell>
        <mxCell id="rPzKSC1QPYH1iVcqIHId-4" value="" style="endArrow=none;html=1;rounded=0;" edge="1" parent="1" source="rPzKSC1QPYH1iVcqIHId-1" target="rPzKSC1QPYH1iVcqIHId-3">
          <mxGeometry width="50" height="50" relative="1" as="geometry">
            <mxPoint x="390" y="300" as="sourcePoint" />
            <mxPoint x="440" y="250" as="targetPoint" />
          </mxGeometry>
        </mxCell>
        <mxCell id="rPzKSC1QPYH1iVcqIHId-5" value="" style="endArrow=none;html=1;rounded=0;" edge="1" parent="1" source="rPzKSC1QPYH1iVcqIHId-3" target="rPzKSC1QPYH1iVcqIHId-2">
          <mxGeometry width="50" height="50" relative="1" as="geometry">
            <mxPoint x="390" y="300" as="sourcePoint" />
            <mxPoint x="440" y="250" as="targetPoint" />
          </mxGeometry>
        </mxCell>
        <mxCell id="rPzKSC1QPYH1iVcqIHId-6" value="4: [random]: &lt;br&gt;removeCharacter(c)" style="html=1;verticalAlign=bottom;endArrow=block;curved=0;rounded=0;" edge="1" parent="1">
          <mxGeometry width="80" relative="1" as="geometry">
            <mxPoint x="340" y="79" as="sourcePoint" />
            <mxPoint x="400" y="79" as="targetPoint" />
            <Array as="points">
              <mxPoint x="370" y="79" />
            </Array>
          </mxGeometry>
        </mxCell>
        <mxCell id="rPzKSC1QPYH1iVcqIHId-7" value="2: splitTo(r2)" style="html=1;verticalAlign=bottom;endArrow=block;curved=0;rounded=0;" edge="1" parent="1">
          <mxGeometry width="80" relative="1" as="geometry">
            <mxPoint x="240" y="80" as="sourcePoint" />
            <mxPoint x="320" y="80" as="targetPoint" />
          </mxGeometry>
        </mxCell>
        <mxCell id="rPzKSC1QPYH1iVcqIHId-8" value="&amp;lt;&amp;lt;create&amp;gt;&amp;gt;&lt;br&gt;1:" style="html=1;verticalAlign=bottom;endArrow=block;curved=0;rounded=0;horizontal=0;" edge="1" parent="1">
          <mxGeometry y="-10" width="80" relative="1" as="geometry">
            <mxPoint x="120" y="150" as="sourcePoint" />
            <mxPoint x="120" y="230" as="targetPoint" />
            <mxPoint as="offset" />
          </mxGeometry>
        </mxCell>
        <mxCell id="rPzKSC1QPYH1iVcqIHId-9" value="3: *[for all c:&lt;br style=&quot;border-color: var(--border-color); font-size: 12px; background-color: rgb(251, 251, 251);&quot;&gt;&lt;span style=&quot;font-size: 12px; background-color: rgb(251, 251, 251);&quot;&gt;listOfCharacters &amp;amp;&amp;amp; random]:&lt;/span&gt;&lt;br&gt;addCharacter(c)" style="html=1;verticalAlign=bottom;endArrow=block;curved=0;rounded=0;horizontal=0;" edge="1" parent="1">
          <mxGeometry x="-0.25" y="-10" width="80" relative="1" as="geometry">
            <mxPoint x="120" y="250" as="sourcePoint" />
            <mxPoint x="120" y="330" as="targetPoint" />
            <mxPoint as="offset" />
          </mxGeometry>
        </mxCell>
        <mxCell id="wGoKMroujbyDRgWBXZS2-1" value="c: Character" style="html=1;whiteSpace=wrap;" vertex="1" parent="1">
          <mxGeometry x="400" y="350" width="110" height="50" as="geometry" />
        </mxCell>
        <mxCell id="wGoKMroujbyDRgWBXZS2-2" value="sd Split Room" style="shape=umlFrame;whiteSpace=wrap;html=1;pointerEvents=0;width=90;height=30;" vertex="1" parent="1">
          <mxGeometry x="50" y="20" width="550" height="420" as="geometry" />
        </mxCell>
      </root>
    </mxGraphModel>
  </diagram>
  <diagram id="b_DfdghGwdRBWpRg61Ut" name="MergeRoom">
    <mxGraphModel dx="880" dy="532" grid="1" gridSize="10" guides="1" tooltips="1" connect="1" arrows="1" fold="1" page="1" pageScale="1" pageWidth="827" pageHeight="1169" math="0" shadow="0">
      <root>
        <mxCell id="0" />
        <mxCell id="1" parent="0" />
        <mxCell id="8pVA3Hh8ETBAJDRf6Co2-1" value="r2: Room" style="html=1;whiteSpace=wrap;" vertex="1" parent="1">
          <mxGeometry x="120" y="280" width="110" height="50" as="geometry" />
        </mxCell>
        <mxCell id="8pVA3Hh8ETBAJDRf6Co2-2" value="r1: Room" style="html=1;whiteSpace=wrap;" vertex="1" parent="1">
          <mxGeometry x="400" y="120" width="110" height="50" as="geometry" />
        </mxCell>
        <mxCell id="8pVA3Hh8ETBAJDRf6Co2-3" value="gc: GameController" style="html=1;whiteSpace=wrap;" vertex="1" parent="1">
          <mxGeometry x="120" y="120" width="110" height="50" as="geometry" />
        </mxCell>
        <mxCell id="8pVA3Hh8ETBAJDRf6Co2-4" value="" style="endArrow=none;html=1;rounded=0;" edge="1" parent="1" source="8pVA3Hh8ETBAJDRf6Co2-3" target="8pVA3Hh8ETBAJDRf6Co2-2">
          <mxGeometry width="50" height="50" relative="1" as="geometry">
            <mxPoint x="390" y="300" as="sourcePoint" />
            <mxPoint x="440" y="250" as="targetPoint" />
          </mxGeometry>
        </mxCell>
        <mxCell id="8pVA3Hh8ETBAJDRf6Co2-5" value="1: mergeTo(r2)" style="html=1;verticalAlign=bottom;endArrow=block;curved=0;rounded=0;" edge="1" parent="1">
          <mxGeometry width="80" relative="1" as="geometry">
            <mxPoint x="250" y="120" as="sourcePoint" />
            <mxPoint x="330" y="120" as="targetPoint" />
          </mxGeometry>
        </mxCell>
        <mxCell id="8pVA3Hh8ETBAJDRf6Co2-7" value="sd Merge Room" style="shape=umlFrame;whiteSpace=wrap;html=1;pointerEvents=0;width=100;height=30;" vertex="1" parent="1">
          <mxGeometry x="80" y="60" width="480" height="320" as="geometry" />
        </mxCell>
      </root>
    </mxGraphModel>
  </diagram>
  <diagram id="_cILCI0gjh6G_PGu8Fqp" name="StudentDie">
    <mxGraphModel dx="880" dy="532" grid="1" gridSize="10" guides="1" tooltips="1" connect="1" arrows="1" fold="1" page="1" pageScale="1" pageWidth="827" pageHeight="1169" math="0" shadow="0">
      <root>
        <mxCell id="0" />
        <mxCell id="1" parent="0" />
        <mxCell id="wjFIRwbwY-SEhEBb40OE-1" value="in: Instructor" style="html=1;whiteSpace=wrap;" vertex="1" parent="1">
          <mxGeometry x="400" y="280" width="110" height="50" as="geometry" />
        </mxCell>
        <mxCell id="wjFIRwbwY-SEhEBb40OE-2" value="i: Item" style="html=1;whiteSpace=wrap;" vertex="1" parent="1">
          <mxGeometry x="120" y="280" width="110" height="50" as="geometry" />
        </mxCell>
        <mxCell id="wjFIRwbwY-SEhEBb40OE-3" value="gc: GameController" style="html=1;whiteSpace=wrap;" vertex="1" parent="1">
          <mxGeometry x="400" y="120" width="110" height="50" as="geometry" />
        </mxCell>
        <mxCell id="wjFIRwbwY-SEhEBb40OE-4" value="s: Student" style="html=1;whiteSpace=wrap;" vertex="1" parent="1">
          <mxGeometry x="120" y="120" width="110" height="50" as="geometry" />
        </mxCell>
        <mxCell id="wjFIRwbwY-SEhEBb40OE-5" value="1: *[ for all i&lt;br style=&quot;border-color: var(--border-color); font-size: 9px; background-color: rgb(251, 251, 251);&quot;&gt;&lt;span style=&quot;font-size: 9px; background-color: rgb(251, 251, 251);&quot;&gt;in inventory]: onAtacked(s, in)&lt;/span&gt;" style="html=1;verticalAlign=bottom;endArrow=block;curved=0;rounded=0;" edge="1" parent="1">
          <mxGeometry x="0.4118" y="27" width="80" relative="1" as="geometry">
            <mxPoint x="260" y="170" as="sourcePoint" />
            <mxPoint x="410" y="260" as="targetPoint" />
            <mxPoint x="1" as="offset" />
          </mxGeometry>
        </mxCell>
        <mxCell id="wjFIRwbwY-SEhEBb40OE-6" value="" style="endArrow=none;html=1;rounded=0;" edge="1" parent="1" source="wjFIRwbwY-SEhEBb40OE-4" target="wjFIRwbwY-SEhEBb40OE-1">
          <mxGeometry width="50" height="50" relative="1" as="geometry">
            <mxPoint x="390" y="300" as="sourcePoint" />
            <mxPoint x="440" y="250" as="targetPoint" />
          </mxGeometry>
        </mxCell>
        <mxCell id="wjFIRwbwY-SEhEBb40OE-7" value="" style="endArrow=none;html=1;rounded=0;" edge="1" parent="1" source="wjFIRwbwY-SEhEBb40OE-4" target="wjFIRwbwY-SEhEBb40OE-3">
          <mxGeometry width="50" height="50" relative="1" as="geometry">
            <mxPoint x="390" y="300" as="sourcePoint" />
            <mxPoint x="440" y="250" as="targetPoint" />
          </mxGeometry>
        </mxCell>
        <mxCell id="wjFIRwbwY-SEhEBb40OE-8" value="" style="endArrow=classic;html=1;rounded=0;" edge="1" parent="1">
          <mxGeometry width="50" height="50" relative="1" as="geometry">
            <mxPoint x="270" y="120" as="sourcePoint" />
            <mxPoint x="370" y="120" as="targetPoint" />
          </mxGeometry>
        </mxCell>
        <mxCell id="wjFIRwbwY-SEhEBb40OE-9" value="Text" style="edgeLabel;html=1;align=center;verticalAlign=middle;resizable=0;points=[];" vertex="1" connectable="0" parent="wjFIRwbwY-SEhEBb40OE-8">
          <mxGeometry x="-0.22" y="1" relative="1" as="geometry">
            <mxPoint y="-9" as="offset" />
          </mxGeometry>
        </mxCell>
        <mxCell id="wjFIRwbwY-SEhEBb40OE-10" value="2: [!studentSaved]: removePlayer(s)" style="edgeLabel;html=1;align=center;verticalAlign=middle;resizable=0;points=[];" vertex="1" connectable="0" parent="wjFIRwbwY-SEhEBb40OE-8">
          <mxGeometry x="-0.16" y="8" relative="1" as="geometry">
            <mxPoint as="offset" />
          </mxGeometry>
        </mxCell>
        <mxCell id="wjFIRwbwY-SEhEBb40OE-11" value="sd Sudent Die" style="shape=umlFrame;whiteSpace=wrap;html=1;pointerEvents=0;width=110;height=30;" vertex="1" parent="1">
          <mxGeometry x="90" y="80" width="470" height="300" as="geometry" />
        </mxCell>
      </root>
    </mxGraphModel>
  </diagram>
  <diagram id="wk41rM-tTjvCyeBWWTpj" name="Page-29">
    <mxGraphModel dx="864" dy="516" grid="1" gridSize="10" guides="1" tooltips="1" connect="1" arrows="1" fold="1" page="1" pageScale="1" pageWidth="827" pageHeight="1169" math="0" shadow="0">
      <root>
        <mxCell id="0" />
        <mxCell id="1" parent="0" />
      </root>
    </mxGraphModel>
  </diagram>
</mxfile>
